<?xml version="1.0" encoding="utf-8" standalone="no"?>
<!DOCTYPE svg PUBLIC "-//W3C//DTD SVG 1.1//EN"
  "http://www.w3.org/Graphics/SVG/1.1/DTD/svg11.dtd">
<svg xmlns:xlink="http://www.w3.org/1999/xlink" width="348.677904pt" height="377.627506pt" viewBox="0 0 348.677904 377.627506" xmlns="http://www.w3.org/2000/svg" version="1.1">
 <metadata>
  <rdf:RDF xmlns:dc="http://purl.org/dc/elements/1.1/" xmlns:cc="http://creativecommons.org/ns#" xmlns:rdf="http://www.w3.org/1999/02/22-rdf-syntax-ns#">
   <cc:Work>
    <dc:type rdf:resource="http://purl.org/dc/dcmitype/StillImage"/>
    <dc:date>2025-03-01T14:25:23.232780</dc:date>
    <dc:format>image/svg+xml</dc:format>
    <dc:creator>
     <cc:Agent>
      <dc:title>Matplotlib v3.9.2, https://matplotlib.org/</dc:title>
     </cc:Agent>
    </dc:creator>
   </cc:Work>
  </rdf:RDF>
 </metadata>
 <defs>
  <style type="text/css">*{stroke-linejoin: round; stroke-linecap: butt}</style>
 </defs>
 <g id="figure_1">
  <g id="patch_1">
   <path d="M 0 377.627506 
L 348.677904 377.627506 
L 348.677904 -0 
L 0 -0 
z
" style="fill: #ffffff"/>
  </g>
  <g id="axes_1">
   <g id="patch_2">
    <path d="M 174.338952 91.781523 
C 155.399532 83.417671 134.020338 82.345841 114.339357 88.773488 
C 94.658376 95.201136 78.032942 108.684966 67.680942 126.615158 
C 57.328941 144.545349 53.964318 165.685312 58.238303 185.943365 
C 62.512287 206.201419 74.130116 224.180428 90.843135 236.400521 
C 89.257967 221.745035 91.558966 206.927284 97.513914 193.442678 
C 103.468862 179.958071 112.870461 168.276021 124.7699 159.575483 
C 126.355068 144.919997 131.77122 130.936949 140.471758 119.03751 
C 149.172296 107.13807 160.854345 97.736471 174.338952 91.781523 
" clip-path="url(#pf9c632943d)" style="fill: #ffa500; opacity: 0.7"/>
   </g>
   <g id="patch_3">
    <path d="M 174.338952 91.781523 
C 187.823559 97.736471 199.505608 107.13807 208.206146 119.03751 
C 216.906685 130.936949 222.322837 144.919997 223.908004 159.575483 
C 235.807443 168.276021 245.209042 179.958071 251.16399 193.442678 
C 257.118938 206.927284 259.419937 221.745035 257.83477 236.400521 
C 274.547789 224.180428 286.165617 206.201419 290.439602 185.943365 
C 294.713586 165.685312 291.348963 144.545349 280.996963 126.615158 
C 270.644962 108.684966 254.019528 95.201136 234.338547 88.773488 
C 214.657566 82.345841 193.278373 83.417671 174.338952 91.781523 
" clip-path="url(#pf9c632943d)" style="fill: #0000ff; opacity: 0.7"/>
   </g>
   <g id="patch_4">
    <path d="M 174.338952 91.781523 
C 160.854345 97.736471 149.172296 107.13807 140.471758 119.03751 
C 131.77122 130.936949 126.355068 144.919997 124.7699 159.575483 
C 139.154346 149.057979 156.519576 143.386636 174.338952 143.386636 
C 192.158328 143.386636 209.523559 149.057979 223.908004 159.575483 
C 222.322837 144.919997 216.906685 130.936949 208.206146 119.03751 
C 199.505608 107.13807 187.823559 97.736471 174.338952 91.781523 
" clip-path="url(#pf9c632943d)" style="fill: #b274b2; opacity: 0.7"/>
   </g>
   <g id="patch_5">
    <path d="M 90.843135 236.400521 
C 93.069536 256.984467 102.830901 276.035306 118.237898 289.865712 
C 133.644894 303.696118 153.634951 311.352251 174.338952 311.352251 
C 195.042954 311.352251 215.03301 303.696118 230.440007 289.865712 
C 245.847003 276.035306 255.608368 256.984467 257.83477 236.400521 
C 245.93533 245.10106 231.952282 250.517212 217.296796 252.102379 
C 202.64131 253.687546 187.823559 251.386547 174.338952 245.431599 
C 160.854345 251.386547 146.036594 253.687546 131.381108 252.102379 
C 116.725622 250.517212 102.742574 245.10106 90.843135 236.400521 
" clip-path="url(#pf9c632943d)" style="fill: #ff0000; opacity: 0.7"/>
   </g>
   <g id="patch_6">
    <path d="M 90.843135 236.400521 
C 102.742574 245.10106 116.725622 250.517212 131.381108 252.102379 
C 146.036594 253.687546 160.854345 251.386547 174.338952 245.431599 
C 158.038303 238.233057 144.444162 226.029997 135.534473 210.597965 
C 126.624785 195.165932 122.853697 177.291531 124.7699 159.575483 
C 112.870461 168.276021 103.468862 179.958071 97.513914 193.442678 
C 91.558966 206.927284 89.257967 221.745035 90.843135 236.400521 
" clip-path="url(#pf9c632943d)" style="fill: #ff7400; opacity: 0.7"/>
   </g>
   <g id="patch_7">
    <path d="M 223.908004 159.575483 
C 225.824208 177.291531 222.053119 195.165932 213.143431 210.597965 
C 204.233743 226.029997 190.639601 238.233057 174.338952 245.431599 
C 187.823559 251.386547 202.64131 253.687546 217.296796 252.102379 
C 231.952282 250.517212 245.93533 245.10106 257.83477 236.400521 
C 259.419937 221.745035 257.118938 206.927284 251.16399 193.442678 
C 245.209042 179.958071 235.807443 168.276021 223.908004 159.575483 
" clip-path="url(#pf9c632943d)" style="fill: #b200b2; opacity: 0.7"/>
   </g>
   <g id="patch_8">
    <path d="M 124.7699 159.575483 
C 122.853697 177.291531 126.624785 195.165932 135.534473 210.597965 
C 144.444162 226.029997 158.038303 238.233057 174.338952 245.431599 
C 190.639601 238.233057 204.233743 226.029997 213.143431 210.597965 
C 222.053119 195.165932 225.824208 177.291531 223.908004 159.575483 
C 209.523559 149.057979 192.158328 143.386636 174.338952 143.386636 
C 156.519576 143.386636 139.154346 149.057979 124.7699 159.575483 
" clip-path="url(#pf9c632943d)" style="fill: #cc4266; opacity: 0.7"/>
   </g>
   <g id="patch_9">
    <path d="M 7.2 370.427506 
L 341.477904 370.427506 
L 341.477904 45.240251 
L 7.2 45.240251 
L 7.2 370.427506 
z
" style="fill: none; stroke: #000000; stroke-linejoin: miter"/>
   </g>
   <g id="text_1">
    <!-- [a] -->
    <g transform="translate(82.121023 141.733123) scale(0.1 -0.1)">
     <defs>
      <path id="DejaVuSans-5b" d="M 550 4863 
L 1875 4863 
L 1875 4416 
L 1125 4416 
L 1125 -397 
L 1875 -397 
L 1875 -844 
L 550 -844 
L 550 4863 
z
" transform="scale(0.015625)"/>
      <path id="DejaVuSans-61" d="M 2194 1759 
Q 1497 1759 1228 1600 
Q 959 1441 959 1056 
Q 959 750 1161 570 
Q 1363 391 1709 391 
Q 2188 391 2477 730 
Q 2766 1069 2766 1631 
L 2766 1759 
L 2194 1759 
z
M 3341 1997 
L 3341 0 
L 2766 0 
L 2766 531 
Q 2569 213 2275 61 
Q 1981 -91 1556 -91 
Q 1019 -91 701 211 
Q 384 513 384 1019 
Q 384 1609 779 1909 
Q 1175 2209 1959 2209 
L 2766 2209 
L 2766 2266 
Q 2766 2663 2505 2880 
Q 2244 3097 1772 3097 
Q 1472 3097 1187 3025 
Q 903 2953 641 2809 
L 641 3341 
Q 956 3463 1253 3523 
Q 1550 3584 1831 3584 
Q 2591 3584 2966 3190 
Q 3341 2797 3341 1997 
z
" transform="scale(0.015625)"/>
      <path id="DejaVuSans-5d" d="M 1947 4863 
L 1947 -844 
L 622 -844 
L 622 -397 
L 1369 -397 
L 1369 4416 
L 622 4416 
L 622 4863 
L 1947 4863 
z
" transform="scale(0.015625)"/>
     </defs>
     <use xlink:href="#DejaVuSans-5b"/>
     <use xlink:href="#DejaVuSans-61" x="39.013672"/>
     <use xlink:href="#DejaVuSans-5d" x="100.292969"/>
    </g>
   </g>
   <g id="text_2">
    <!-- [b] -->
    <g transform="translate(252.515475 141.733123) scale(0.1 -0.1)">
     <defs>
      <path id="DejaVuSans-62" d="M 3116 1747 
Q 3116 2381 2855 2742 
Q 2594 3103 2138 3103 
Q 1681 3103 1420 2742 
Q 1159 2381 1159 1747 
Q 1159 1113 1420 752 
Q 1681 391 2138 391 
Q 2594 391 2855 752 
Q 3116 1113 3116 1747 
z
M 1159 2969 
Q 1341 3281 1617 3432 
Q 1894 3584 2278 3584 
Q 2916 3584 3314 3078 
Q 3713 2572 3713 1747 
Q 3713 922 3314 415 
Q 2916 -91 2278 -91 
Q 1894 -91 1617 61 
Q 1341 213 1159 525 
L 1159 0 
L 581 0 
L 581 4863 
L 1159 4863 
L 1159 2969 
z
" transform="scale(0.015625)"/>
     </defs>
     <use xlink:href="#DejaVuSans-5b"/>
     <use xlink:href="#DejaVuSans-62" x="39.013672"/>
     <use xlink:href="#DejaVuSans-5d" x="102.490234"/>
    </g>
   </g>
   <g id="text_3">
    <!-- [d] -->
    <g transform="translate(167.263171 130.955218) scale(0.1 -0.1)">
     <defs>
      <path id="DejaVuSans-64" d="M 2906 2969 
L 2906 4863 
L 3481 4863 
L 3481 0 
L 2906 0 
L 2906 525 
Q 2725 213 2448 61 
Q 2172 -91 1784 -91 
Q 1150 -91 751 415 
Q 353 922 353 1747 
Q 353 2572 751 3078 
Q 1150 3584 1784 3584 
Q 2172 3584 2448 3432 
Q 2725 3281 2906 2969 
z
M 947 1747 
Q 947 1113 1208 752 
Q 1469 391 1925 391 
Q 2381 391 2643 752 
Q 2906 1113 2906 1747 
Q 2906 2381 2643 2742 
Q 2381 3103 1925 3103 
Q 1469 3103 1208 2742 
Q 947 2381 947 1747 
z
" transform="scale(0.015625)"/>
     </defs>
     <use xlink:href="#DejaVuSans-5b"/>
     <use xlink:href="#DejaVuSans-64" x="39.013672"/>
     <use xlink:href="#DejaVuSans-5d" x="102.490234"/>
    </g>
   </g>
   <g id="text_4">
    <!-- [c] -->
    <g transform="translate(167.688171 289.394445) scale(0.1 -0.1)">
     <defs>
      <path id="DejaVuSans-63" d="M 3122 3366 
L 3122 2828 
Q 2878 2963 2633 3030 
Q 2388 3097 2138 3097 
Q 1578 3097 1268 2742 
Q 959 2388 959 1747 
Q 959 1106 1268 751 
Q 1578 397 2138 397 
Q 2388 397 2633 464 
Q 2878 531 3122 666 
L 3122 134 
Q 2881 22 2623 -34 
Q 2366 -91 2075 -91 
Q 1284 -91 818 406 
Q 353 903 353 1747 
Q 353 2603 823 3093 
Q 1294 3584 2113 3584 
Q 2378 3584 2631 3529 
Q 2884 3475 3122 3366 
z
" transform="scale(0.015625)"/>
     </defs>
     <use xlink:href="#DejaVuSans-5b"/>
     <use xlink:href="#DejaVuSans-63" x="39.013672"/>
     <use xlink:href="#DejaVuSans-5d" x="93.994141"/>
    </g>
   </g>
   <g id="text_5">
    <!-- [f] -->
    <g transform="translate(116.717142 220.952736) scale(0.1 -0.1)">
     <defs>
      <path id="DejaVuSans-66" d="M 2375 4863 
L 2375 4384 
L 1825 4384 
Q 1516 4384 1395 4259 
Q 1275 4134 1275 3809 
L 1275 3500 
L 2222 3500 
L 2222 3053 
L 1275 3053 
L 1275 0 
L 697 0 
L 697 3053 
L 147 3053 
L 147 3500 
L 697 3500 
L 697 3744 
Q 697 4328 969 4595 
Q 1241 4863 1831 4863 
L 2375 4863 
z
" transform="scale(0.015625)"/>
     </defs>
     <use xlink:href="#DejaVuSans-5b"/>
     <use xlink:href="#DejaVuSans-66" x="39.013672"/>
     <use xlink:href="#DejaVuSans-5d" x="74.21875"/>
    </g>
   </g>
   <g id="text_6">
    <!-- [e] -->
    <g transform="translate(219.320918 220.952736) scale(0.1 -0.1)">
     <defs>
      <path id="DejaVuSans-65" d="M 3597 1894 
L 3597 1613 
L 953 1613 
Q 991 1019 1311 708 
Q 1631 397 2203 397 
Q 2534 397 2845 478 
Q 3156 559 3463 722 
L 3463 178 
Q 3153 47 2828 -22 
Q 2503 -91 2169 -91 
Q 1331 -91 842 396 
Q 353 884 353 1716 
Q 353 2575 817 3079 
Q 1281 3584 2069 3584 
Q 2775 3584 3186 3129 
Q 3597 2675 3597 1894 
z
M 3022 2063 
Q 3016 2534 2758 2815 
Q 2500 3097 2075 3097 
Q 1594 3097 1305 2825 
Q 1016 2553 972 2059 
L 3022 2063 
z
" transform="scale(0.015625)"/>
     </defs>
     <use xlink:href="#DejaVuSans-5b"/>
     <use xlink:href="#DejaVuSans-65" x="39.013672"/>
     <use xlink:href="#DejaVuSans-5d" x="100.537109"/>
    </g>
   </g>
   <g id="text_7">
    <!-- [g] -->
    <g transform="translate(167.263171 190.953564) scale(0.1 -0.1)">
     <defs>
      <path id="DejaVuSans-67" d="M 2906 1791 
Q 2906 2416 2648 2759 
Q 2391 3103 1925 3103 
Q 1463 3103 1205 2759 
Q 947 2416 947 1791 
Q 947 1169 1205 825 
Q 1463 481 1925 481 
Q 2391 481 2648 825 
Q 2906 1169 2906 1791 
z
M 3481 434 
Q 3481 -459 3084 -895 
Q 2688 -1331 1869 -1331 
Q 1566 -1331 1297 -1286 
Q 1028 -1241 775 -1147 
L 775 -588 
Q 1028 -725 1275 -790 
Q 1522 -856 1778 -856 
Q 2344 -856 2625 -561 
Q 2906 -266 2906 331 
L 2906 616 
Q 2728 306 2450 153 
Q 2172 0 1784 0 
Q 1141 0 747 490 
Q 353 981 353 1791 
Q 353 2603 747 3093 
Q 1141 3584 1784 3584 
Q 2172 3584 2450 3431 
Q 2728 3278 2906 2969 
L 2906 3500 
L 3481 3500 
L 3481 434 
z
" transform="scale(0.015625)"/>
     </defs>
     <use xlink:href="#DejaVuSans-5b"/>
     <use xlink:href="#DejaVuSans-67" x="39.013672"/>
     <use xlink:href="#DejaVuSans-5d" x="102.490234"/>
    </g>
   </g>
   <g id="text_8">
    <!-- X1 -->
    <g transform="translate(82.565783 84.623754) scale(0.12 -0.12)">
     <defs>
      <path id="DejaVuSans-58" d="M 403 4666 
L 1081 4666 
L 2241 2931 
L 3406 4666 
L 4084 4666 
L 2584 2425 
L 4184 0 
L 3506 0 
L 2194 1984 
L 872 0 
L 191 0 
L 1856 2491 
L 403 4666 
z
" transform="scale(0.015625)"/>
      <path id="DejaVuSans-31" d="M 794 531 
L 1825 531 
L 1825 4091 
L 703 3866 
L 703 4441 
L 1819 4666 
L 2450 4666 
L 2450 531 
L 3481 531 
L 3481 0 
L 794 0 
L 794 531 
z
" transform="scale(0.015625)"/>
     </defs>
     <use xlink:href="#DejaVuSans-58"/>
     <use xlink:href="#DejaVuSans-31" x="68.505859"/>
    </g>
   </g>
   <g id="text_9">
    <!-- X2 -->
    <g transform="translate(250.257122 84.623754) scale(0.12 -0.12)">
     <defs>
      <path id="DejaVuSans-32" d="M 1228 531 
L 3431 531 
L 3431 0 
L 469 0 
L 469 531 
Q 828 903 1448 1529 
Q 2069 2156 2228 2338 
Q 2531 2678 2651 2914 
Q 2772 3150 2772 3378 
Q 2772 3750 2511 3984 
Q 2250 4219 1831 4219 
Q 1534 4219 1204 4116 
Q 875 4013 500 3803 
L 500 4441 
Q 881 4594 1212 4672 
Q 1544 4750 1819 4750 
Q 2544 4750 2975 4387 
Q 3406 4025 3406 3419 
Q 3406 3131 3298 2873 
Q 3191 2616 2906 2266 
Q 2828 2175 2409 1742 
Q 1991 1309 1228 531 
z
" transform="scale(0.015625)"/>
     </defs>
     <use xlink:href="#DejaVuSans-58"/>
     <use xlink:href="#DejaVuSans-32" x="68.505859"/>
    </g>
   </g>
   <g id="text_10">
    <!-- X3 -->
    <g transform="translate(166.411452 328.868657) scale(0.12 -0.12)">
     <defs>
      <path id="DejaVuSans-33" d="M 2597 2516 
Q 3050 2419 3304 2112 
Q 3559 1806 3559 1356 
Q 3559 666 3084 287 
Q 2609 -91 1734 -91 
Q 1441 -91 1130 -33 
Q 819 25 488 141 
L 488 750 
Q 750 597 1062 519 
Q 1375 441 1716 441 
Q 2309 441 2620 675 
Q 2931 909 2931 1356 
Q 2931 1769 2642 2001 
Q 2353 2234 1838 2234 
L 1294 2234 
L 1294 2753 
L 1863 2753 
Q 2328 2753 2575 2939 
Q 2822 3125 2822 3475 
Q 2822 3834 2567 4026 
Q 2313 4219 1838 4219 
Q 1578 4219 1281 4162 
Q 984 4106 628 3988 
L 628 4550 
Q 988 4650 1302 4700 
Q 1616 4750 1894 4750 
Q 2613 4750 3031 4423 
Q 3450 4097 3450 3541 
Q 3450 3153 3228 2886 
Q 3006 2619 2597 2516 
z
" transform="scale(0.015625)"/>
     </defs>
     <use xlink:href="#DejaVuSans-58"/>
     <use xlink:href="#DejaVuSans-33" x="68.505859"/>
    </g>
   </g>
   <g id="text_11">
    <!-- [h] -->
    <g transform="translate(9.169175 366.489155) scale(0.1 -0.1)">
     <defs>
      <path id="DejaVuSans-68" d="M 3513 2113 
L 3513 0 
L 2938 0 
L 2938 2094 
Q 2938 2591 2744 2837 
Q 2550 3084 2163 3084 
Q 1697 3084 1428 2787 
Q 1159 2491 1159 1978 
L 1159 0 
L 581 0 
L 581 4863 
L 1159 4863 
L 1159 2956 
Q 1366 3272 1645 3428 
Q 1925 3584 2291 3584 
Q 2894 3584 3203 3211 
Q 3513 2838 3513 2113 
z
" transform="scale(0.015625)"/>
     </defs>
     <use xlink:href="#DejaVuSans-5b"/>
     <use xlink:href="#DejaVuSans-68" x="39.013672"/>
     <use xlink:href="#DejaVuSans-5d" x="102.392578"/>
    </g>
   </g>
   <g id="text_12">
    <!-- Variation Partitioning Venn Diagram -->
    <g transform="translate(40.190905 18.597656) scale(0.15 -0.15)">
     <defs>
      <path id="DejaVuSans-56" d="M 1831 0 
L 50 4666 
L 709 4666 
L 2188 738 
L 3669 4666 
L 4325 4666 
L 2547 0 
L 1831 0 
z
" transform="scale(0.015625)"/>
      <path id="DejaVuSans-72" d="M 2631 2963 
Q 2534 3019 2420 3045 
Q 2306 3072 2169 3072 
Q 1681 3072 1420 2755 
Q 1159 2438 1159 1844 
L 1159 0 
L 581 0 
L 581 3500 
L 1159 3500 
L 1159 2956 
Q 1341 3275 1631 3429 
Q 1922 3584 2338 3584 
Q 2397 3584 2469 3576 
Q 2541 3569 2628 3553 
L 2631 2963 
z
" transform="scale(0.015625)"/>
      <path id="DejaVuSans-69" d="M 603 3500 
L 1178 3500 
L 1178 0 
L 603 0 
L 603 3500 
z
M 603 4863 
L 1178 4863 
L 1178 4134 
L 603 4134 
L 603 4863 
z
" transform="scale(0.015625)"/>
      <path id="DejaVuSans-74" d="M 1172 4494 
L 1172 3500 
L 2356 3500 
L 2356 3053 
L 1172 3053 
L 1172 1153 
Q 1172 725 1289 603 
Q 1406 481 1766 481 
L 2356 481 
L 2356 0 
L 1766 0 
Q 1100 0 847 248 
Q 594 497 594 1153 
L 594 3053 
L 172 3053 
L 172 3500 
L 594 3500 
L 594 4494 
L 1172 4494 
z
" transform="scale(0.015625)"/>
      <path id="DejaVuSans-6f" d="M 1959 3097 
Q 1497 3097 1228 2736 
Q 959 2375 959 1747 
Q 959 1119 1226 758 
Q 1494 397 1959 397 
Q 2419 397 2687 759 
Q 2956 1122 2956 1747 
Q 2956 2369 2687 2733 
Q 2419 3097 1959 3097 
z
M 1959 3584 
Q 2709 3584 3137 3096 
Q 3566 2609 3566 1747 
Q 3566 888 3137 398 
Q 2709 -91 1959 -91 
Q 1206 -91 779 398 
Q 353 888 353 1747 
Q 353 2609 779 3096 
Q 1206 3584 1959 3584 
z
" transform="scale(0.015625)"/>
      <path id="DejaVuSans-6e" d="M 3513 2113 
L 3513 0 
L 2938 0 
L 2938 2094 
Q 2938 2591 2744 2837 
Q 2550 3084 2163 3084 
Q 1697 3084 1428 2787 
Q 1159 2491 1159 1978 
L 1159 0 
L 581 0 
L 581 3500 
L 1159 3500 
L 1159 2956 
Q 1366 3272 1645 3428 
Q 1925 3584 2291 3584 
Q 2894 3584 3203 3211 
Q 3513 2838 3513 2113 
z
" transform="scale(0.015625)"/>
      <path id="DejaVuSans-20" transform="scale(0.015625)"/>
      <path id="DejaVuSans-50" d="M 1259 4147 
L 1259 2394 
L 2053 2394 
Q 2494 2394 2734 2622 
Q 2975 2850 2975 3272 
Q 2975 3691 2734 3919 
Q 2494 4147 2053 4147 
L 1259 4147 
z
M 628 4666 
L 2053 4666 
Q 2838 4666 3239 4311 
Q 3641 3956 3641 3272 
Q 3641 2581 3239 2228 
Q 2838 1875 2053 1875 
L 1259 1875 
L 1259 0 
L 628 0 
L 628 4666 
z
" transform="scale(0.015625)"/>
      <path id="DejaVuSans-44" d="M 1259 4147 
L 1259 519 
L 2022 519 
Q 2988 519 3436 956 
Q 3884 1394 3884 2338 
Q 3884 3275 3436 3711 
Q 2988 4147 2022 4147 
L 1259 4147 
z
M 628 4666 
L 1925 4666 
Q 3281 4666 3915 4102 
Q 4550 3538 4550 2338 
Q 4550 1131 3912 565 
Q 3275 0 1925 0 
L 628 0 
L 628 4666 
z
" transform="scale(0.015625)"/>
      <path id="DejaVuSans-6d" d="M 3328 2828 
Q 3544 3216 3844 3400 
Q 4144 3584 4550 3584 
Q 5097 3584 5394 3201 
Q 5691 2819 5691 2113 
L 5691 0 
L 5113 0 
L 5113 2094 
Q 5113 2597 4934 2840 
Q 4756 3084 4391 3084 
Q 3944 3084 3684 2787 
Q 3425 2491 3425 1978 
L 3425 0 
L 2847 0 
L 2847 2094 
Q 2847 2600 2669 2842 
Q 2491 3084 2119 3084 
Q 1678 3084 1418 2786 
Q 1159 2488 1159 1978 
L 1159 0 
L 581 0 
L 581 3500 
L 1159 3500 
L 1159 2956 
Q 1356 3278 1631 3431 
Q 1906 3584 2284 3584 
Q 2666 3584 2933 3390 
Q 3200 3197 3328 2828 
z
" transform="scale(0.015625)"/>
     </defs>
     <use xlink:href="#DejaVuSans-56"/>
     <use xlink:href="#DejaVuSans-61" x="60.658203"/>
     <use xlink:href="#DejaVuSans-72" x="121.9375"/>
     <use xlink:href="#DejaVuSans-69" x="163.050781"/>
     <use xlink:href="#DejaVuSans-61" x="190.833984"/>
     <use xlink:href="#DejaVuSans-74" x="252.113281"/>
     <use xlink:href="#DejaVuSans-69" x="291.322266"/>
     <use xlink:href="#DejaVuSans-6f" x="319.105469"/>
     <use xlink:href="#DejaVuSans-6e" x="380.287109"/>
     <use xlink:href="#DejaVuSans-20" x="443.666016"/>
     <use xlink:href="#DejaVuSans-50" x="475.453125"/>
     <use xlink:href="#DejaVuSans-61" x="531.255859"/>
     <use xlink:href="#DejaVuSans-72" x="592.535156"/>
     <use xlink:href="#DejaVuSans-74" x="633.648438"/>
     <use xlink:href="#DejaVuSans-69" x="672.857422"/>
     <use xlink:href="#DejaVuSans-74" x="700.640625"/>
     <use xlink:href="#DejaVuSans-69" x="739.849609"/>
     <use xlink:href="#DejaVuSans-6f" x="767.632812"/>
     <use xlink:href="#DejaVuSans-6e" x="828.814453"/>
     <use xlink:href="#DejaVuSans-69" x="892.193359"/>
     <use xlink:href="#DejaVuSans-6e" x="919.976562"/>
     <use xlink:href="#DejaVuSans-67" x="983.355469"/>
     <use xlink:href="#DejaVuSans-20" x="1046.832031"/>
     <use xlink:href="#DejaVuSans-56" x="1078.619141"/>
     <use xlink:href="#DejaVuSans-65" x="1139.277344"/>
     <use xlink:href="#DejaVuSans-6e" x="1200.800781"/>
     <use xlink:href="#DejaVuSans-6e" x="1264.179688"/>
     <use xlink:href="#DejaVuSans-20" x="1327.558594"/>
     <use xlink:href="#DejaVuSans-44" x="1359.345703"/>
     <use xlink:href="#DejaVuSans-69" x="1436.347656"/>
     <use xlink:href="#DejaVuSans-61" x="1464.130859"/>
     <use xlink:href="#DejaVuSans-67" x="1525.410156"/>
     <use xlink:href="#DejaVuSans-72" x="1588.886719"/>
     <use xlink:href="#DejaVuSans-61" x="1630"/>
     <use xlink:href="#DejaVuSans-6d" x="1691.279297"/>
    </g>
    <!-- for 3 Multivariate Explanatory Variables -->
    <g transform="translate(25.740515 35.394375) scale(0.15 -0.15)">
     <defs>
      <path id="DejaVuSans-4d" d="M 628 4666 
L 1569 4666 
L 2759 1491 
L 3956 4666 
L 4897 4666 
L 4897 0 
L 4281 0 
L 4281 4097 
L 3078 897 
L 2444 897 
L 1241 4097 
L 1241 0 
L 628 0 
L 628 4666 
z
" transform="scale(0.015625)"/>
      <path id="DejaVuSans-75" d="M 544 1381 
L 544 3500 
L 1119 3500 
L 1119 1403 
Q 1119 906 1312 657 
Q 1506 409 1894 409 
Q 2359 409 2629 706 
Q 2900 1003 2900 1516 
L 2900 3500 
L 3475 3500 
L 3475 0 
L 2900 0 
L 2900 538 
Q 2691 219 2414 64 
Q 2138 -91 1772 -91 
Q 1169 -91 856 284 
Q 544 659 544 1381 
z
M 1991 3584 
L 1991 3584 
z
" transform="scale(0.015625)"/>
      <path id="DejaVuSans-6c" d="M 603 4863 
L 1178 4863 
L 1178 0 
L 603 0 
L 603 4863 
z
" transform="scale(0.015625)"/>
      <path id="DejaVuSans-76" d="M 191 3500 
L 800 3500 
L 1894 563 
L 2988 3500 
L 3597 3500 
L 2284 0 
L 1503 0 
L 191 3500 
z
" transform="scale(0.015625)"/>
      <path id="DejaVuSans-45" d="M 628 4666 
L 3578 4666 
L 3578 4134 
L 1259 4134 
L 1259 2753 
L 3481 2753 
L 3481 2222 
L 1259 2222 
L 1259 531 
L 3634 531 
L 3634 0 
L 628 0 
L 628 4666 
z
" transform="scale(0.015625)"/>
      <path id="DejaVuSans-78" d="M 3513 3500 
L 2247 1797 
L 3578 0 
L 2900 0 
L 1881 1375 
L 863 0 
L 184 0 
L 1544 1831 
L 300 3500 
L 978 3500 
L 1906 2253 
L 2834 3500 
L 3513 3500 
z
" transform="scale(0.015625)"/>
      <path id="DejaVuSans-70" d="M 1159 525 
L 1159 -1331 
L 581 -1331 
L 581 3500 
L 1159 3500 
L 1159 2969 
Q 1341 3281 1617 3432 
Q 1894 3584 2278 3584 
Q 2916 3584 3314 3078 
Q 3713 2572 3713 1747 
Q 3713 922 3314 415 
Q 2916 -91 2278 -91 
Q 1894 -91 1617 61 
Q 1341 213 1159 525 
z
M 3116 1747 
Q 3116 2381 2855 2742 
Q 2594 3103 2138 3103 
Q 1681 3103 1420 2742 
Q 1159 2381 1159 1747 
Q 1159 1113 1420 752 
Q 1681 391 2138 391 
Q 2594 391 2855 752 
Q 3116 1113 3116 1747 
z
" transform="scale(0.015625)"/>
      <path id="DejaVuSans-79" d="M 2059 -325 
Q 1816 -950 1584 -1140 
Q 1353 -1331 966 -1331 
L 506 -1331 
L 506 -850 
L 844 -850 
Q 1081 -850 1212 -737 
Q 1344 -625 1503 -206 
L 1606 56 
L 191 3500 
L 800 3500 
L 1894 763 
L 2988 3500 
L 3597 3500 
L 2059 -325 
z
" transform="scale(0.015625)"/>
      <path id="DejaVuSans-73" d="M 2834 3397 
L 2834 2853 
Q 2591 2978 2328 3040 
Q 2066 3103 1784 3103 
Q 1356 3103 1142 2972 
Q 928 2841 928 2578 
Q 928 2378 1081 2264 
Q 1234 2150 1697 2047 
L 1894 2003 
Q 2506 1872 2764 1633 
Q 3022 1394 3022 966 
Q 3022 478 2636 193 
Q 2250 -91 1575 -91 
Q 1294 -91 989 -36 
Q 684 19 347 128 
L 347 722 
Q 666 556 975 473 
Q 1284 391 1588 391 
Q 1994 391 2212 530 
Q 2431 669 2431 922 
Q 2431 1156 2273 1281 
Q 2116 1406 1581 1522 
L 1381 1569 
Q 847 1681 609 1914 
Q 372 2147 372 2553 
Q 372 3047 722 3315 
Q 1072 3584 1716 3584 
Q 2034 3584 2315 3537 
Q 2597 3491 2834 3397 
z
" transform="scale(0.015625)"/>
     </defs>
     <use xlink:href="#DejaVuSans-66"/>
     <use xlink:href="#DejaVuSans-6f" x="35.205078"/>
     <use xlink:href="#DejaVuSans-72" x="96.386719"/>
     <use xlink:href="#DejaVuSans-20" x="137.5"/>
     <use xlink:href="#DejaVuSans-33" x="169.287109"/>
     <use xlink:href="#DejaVuSans-20" x="232.910156"/>
     <use xlink:href="#DejaVuSans-4d" x="264.697266"/>
     <use xlink:href="#DejaVuSans-75" x="350.976562"/>
     <use xlink:href="#DejaVuSans-6c" x="414.355469"/>
     <use xlink:href="#DejaVuSans-74" x="442.138672"/>
     <use xlink:href="#DejaVuSans-69" x="481.347656"/>
     <use xlink:href="#DejaVuSans-76" x="509.130859"/>
     <use xlink:href="#DejaVuSans-61" x="568.310547"/>
     <use xlink:href="#DejaVuSans-72" x="629.589844"/>
     <use xlink:href="#DejaVuSans-69" x="670.703125"/>
     <use xlink:href="#DejaVuSans-61" x="698.486328"/>
     <use xlink:href="#DejaVuSans-74" x="759.765625"/>
     <use xlink:href="#DejaVuSans-65" x="798.974609"/>
     <use xlink:href="#DejaVuSans-20" x="860.498047"/>
     <use xlink:href="#DejaVuSans-45" x="892.285156"/>
     <use xlink:href="#DejaVuSans-78" x="955.46875"/>
     <use xlink:href="#DejaVuSans-70" x="1014.648438"/>
     <use xlink:href="#DejaVuSans-6c" x="1078.125"/>
     <use xlink:href="#DejaVuSans-61" x="1105.908203"/>
     <use xlink:href="#DejaVuSans-6e" x="1167.1875"/>
     <use xlink:href="#DejaVuSans-61" x="1230.566406"/>
     <use xlink:href="#DejaVuSans-74" x="1291.845703"/>
     <use xlink:href="#DejaVuSans-6f" x="1331.054688"/>
     <use xlink:href="#DejaVuSans-72" x="1392.236328"/>
     <use xlink:href="#DejaVuSans-79" x="1433.349609"/>
     <use xlink:href="#DejaVuSans-20" x="1492.529297"/>
     <use xlink:href="#DejaVuSans-56" x="1524.316406"/>
     <use xlink:href="#DejaVuSans-61" x="1584.974609"/>
     <use xlink:href="#DejaVuSans-72" x="1646.253906"/>
     <use xlink:href="#DejaVuSans-69" x="1687.367188"/>
     <use xlink:href="#DejaVuSans-61" x="1715.150391"/>
     <use xlink:href="#DejaVuSans-62" x="1776.429688"/>
     <use xlink:href="#DejaVuSans-6c" x="1839.90625"/>
     <use xlink:href="#DejaVuSans-65" x="1867.689453"/>
     <use xlink:href="#DejaVuSans-73" x="1929.212891"/>
    </g>
   </g>
  </g>
 </g>
 <defs>
  <clipPath id="pf9c632943d">
   <rect x="36.737627" y="64.932002" width="275.20265" height="266.112"/>
  </clipPath>
 </defs>
</svg>
