<?xml version="1.0" encoding="utf-8" standalone="no"?>
<!DOCTYPE svg PUBLIC "-//W3C//DTD SVG 1.1//EN"
  "http://www.w3.org/Graphics/SVG/1.1/DTD/svg11.dtd">
<svg xmlns:xlink="http://www.w3.org/1999/xlink" width="441.760312pt" height="400.711659pt" viewBox="0 0 441.760312 400.711659" xmlns="http://www.w3.org/2000/svg" version="1.1">
 <metadata>
  <rdf:RDF xmlns:dc="http://purl.org/dc/elements/1.1/" xmlns:cc="http://creativecommons.org/ns#" xmlns:rdf="http://www.w3.org/1999/02/22-rdf-syntax-ns#">
   <cc:Work>
    <dc:type rdf:resource="http://purl.org/dc/dcmitype/StillImage"/>
    <dc:date>2025-02-07T14:24:17.697702</dc:date>
    <dc:format>image/svg+xml</dc:format>
    <dc:creator>
     <cc:Agent>
      <dc:title>Matplotlib v3.9.2, https://matplotlib.org/</dc:title>
     </cc:Agent>
    </dc:creator>
   </cc:Work>
  </rdf:RDF>
 </metadata>
 <defs>
  <style type="text/css">*{stroke-linejoin: round; stroke-linecap: butt}</style>
 </defs>
 <g id="figure_1">
  <g id="patch_1">
   <path d="M 0 400.711659 
L 441.760312 400.711659 
L 441.760312 0 
L 0 0 
z
" style="fill: #ffffff"/>
  </g>
  <g id="axes_1">
   <g id="patch_2">
    <path d="M 77.440313 290.712 
L 434.560313 290.712 
L 434.560313 24.6 
L 77.440313 24.6 
z
" style="fill: #ffffff"/>
   </g>
   <g id="matplotlib.axis_1">
    <g id="xtick_1">
     <g id="line2d_1">
      <defs>
       <path id="m707be24c87" d="M 0 0 
L 0 3.5 
" style="stroke: #000000; stroke-width: 0.8"/>
      </defs>
      <g>
       <use xlink:href="#m707be24c87" x="97.280313" y="290.712" style="stroke: #000000; stroke-width: 0.8"/>
      </g>
     </g>
     <g id="text_1">
      <!-- 0$-$Aut -->
      <g transform="translate(73.253045 325.641613) rotate(-45) scale(0.1 -0.1)">
       <defs>
        <path id="DejaVuSans-30" d="M 2034 4250 
Q 1547 4250 1301 3770 
Q 1056 3291 1056 2328 
Q 1056 1369 1301 889 
Q 1547 409 2034 409 
Q 2525 409 2770 889 
Q 3016 1369 3016 2328 
Q 3016 3291 2770 3770 
Q 2525 4250 2034 4250 
z
M 2034 4750 
Q 2819 4750 3233 4129 
Q 3647 3509 3647 2328 
Q 3647 1150 3233 529 
Q 2819 -91 2034 -91 
Q 1250 -91 836 529 
Q 422 1150 422 2328 
Q 422 3509 836 4129 
Q 1250 4750 2034 4750 
z
" transform="scale(0.015625)"/>
        <path id="DejaVuSans-2212" d="M 678 2272 
L 4684 2272 
L 4684 1741 
L 678 1741 
L 678 2272 
z
" transform="scale(0.015625)"/>
        <path id="DejaVuSans-41" d="M 2188 4044 
L 1331 1722 
L 3047 1722 
L 2188 4044 
z
M 1831 4666 
L 2547 4666 
L 4325 0 
L 3669 0 
L 3244 1197 
L 1141 1197 
L 716 0 
L 50 0 
L 1831 4666 
z
" transform="scale(0.015625)"/>
        <path id="DejaVuSans-75" d="M 544 1381 
L 544 3500 
L 1119 3500 
L 1119 1403 
Q 1119 906 1312 657 
Q 1506 409 1894 409 
Q 2359 409 2629 706 
Q 2900 1003 2900 1516 
L 2900 3500 
L 3475 3500 
L 3475 0 
L 2900 0 
L 2900 538 
Q 2691 219 2414 64 
Q 2138 -91 1772 -91 
Q 1169 -91 856 284 
Q 544 659 544 1381 
z
M 1991 3584 
L 1991 3584 
z
" transform="scale(0.015625)"/>
        <path id="DejaVuSans-74" d="M 1172 4494 
L 1172 3500 
L 2356 3500 
L 2356 3053 
L 1172 3053 
L 1172 1153 
Q 1172 725 1289 603 
Q 1406 481 1766 481 
L 2356 481 
L 2356 0 
L 1766 0 
Q 1100 0 847 248 
Q 594 497 594 1153 
L 594 3053 
L 172 3053 
L 172 3500 
L 594 3500 
L 594 4494 
L 1172 4494 
z
" transform="scale(0.015625)"/>
       </defs>
       <use xlink:href="#DejaVuSans-30" transform="translate(0 0.78125)"/>
       <use xlink:href="#DejaVuSans-2212" transform="translate(63.623047 0.78125)"/>
       <use xlink:href="#DejaVuSans-41" transform="translate(147.412109 0.78125)"/>
       <use xlink:href="#DejaVuSans-75" transform="translate(215.820312 0.78125)"/>
       <use xlink:href="#DejaVuSans-74" transform="translate(279.199219 0.78125)"/>
      </g>
     </g>
    </g>
    <g id="xtick_2">
     <g id="line2d_2">
      <g>
       <use xlink:href="#m707be24c87" x="136.960312" y="290.712" style="stroke: #000000; stroke-width: 0.8"/>
      </g>
     </g>
     <g id="text_2">
      <!-- Aut$-$dummy 1 -->
      <g transform="translate(83.715172 354.846228) rotate(-45) scale(0.1 -0.1)">
       <defs>
        <path id="DejaVuSans-64" d="M 2906 2969 
L 2906 4863 
L 3481 4863 
L 3481 0 
L 2906 0 
L 2906 525 
Q 2725 213 2448 61 
Q 2172 -91 1784 -91 
Q 1150 -91 751 415 
Q 353 922 353 1747 
Q 353 2572 751 3078 
Q 1150 3584 1784 3584 
Q 2172 3584 2448 3432 
Q 2725 3281 2906 2969 
z
M 947 1747 
Q 947 1113 1208 752 
Q 1469 391 1925 391 
Q 2381 391 2643 752 
Q 2906 1113 2906 1747 
Q 2906 2381 2643 2742 
Q 2381 3103 1925 3103 
Q 1469 3103 1208 2742 
Q 947 2381 947 1747 
z
" transform="scale(0.015625)"/>
        <path id="DejaVuSans-6d" d="M 3328 2828 
Q 3544 3216 3844 3400 
Q 4144 3584 4550 3584 
Q 5097 3584 5394 3201 
Q 5691 2819 5691 2113 
L 5691 0 
L 5113 0 
L 5113 2094 
Q 5113 2597 4934 2840 
Q 4756 3084 4391 3084 
Q 3944 3084 3684 2787 
Q 3425 2491 3425 1978 
L 3425 0 
L 2847 0 
L 2847 2094 
Q 2847 2600 2669 2842 
Q 2491 3084 2119 3084 
Q 1678 3084 1418 2786 
Q 1159 2488 1159 1978 
L 1159 0 
L 581 0 
L 581 3500 
L 1159 3500 
L 1159 2956 
Q 1356 3278 1631 3431 
Q 1906 3584 2284 3584 
Q 2666 3584 2933 3390 
Q 3200 3197 3328 2828 
z
" transform="scale(0.015625)"/>
        <path id="DejaVuSans-79" d="M 2059 -325 
Q 1816 -950 1584 -1140 
Q 1353 -1331 966 -1331 
L 506 -1331 
L 506 -850 
L 844 -850 
Q 1081 -850 1212 -737 
Q 1344 -625 1503 -206 
L 1606 56 
L 191 3500 
L 800 3500 
L 1894 763 
L 2988 3500 
L 3597 3500 
L 2059 -325 
z
" transform="scale(0.015625)"/>
        <path id="DejaVuSans-20" transform="scale(0.015625)"/>
        <path id="DejaVuSans-31" d="M 794 531 
L 1825 531 
L 1825 4091 
L 703 3866 
L 703 4441 
L 1819 4666 
L 2450 4666 
L 2450 531 
L 3481 531 
L 3481 0 
L 794 0 
L 794 531 
z
" transform="scale(0.015625)"/>
       </defs>
       <use xlink:href="#DejaVuSans-41" transform="translate(0 0.015625)"/>
       <use xlink:href="#DejaVuSans-75" transform="translate(68.408203 0.015625)"/>
       <use xlink:href="#DejaVuSans-74" transform="translate(131.787109 0.015625)"/>
       <use xlink:href="#DejaVuSans-2212" transform="translate(170.996094 0.015625)"/>
       <use xlink:href="#DejaVuSans-64" transform="translate(254.785156 0.015625)"/>
       <use xlink:href="#DejaVuSans-75" transform="translate(318.261719 0.015625)"/>
       <use xlink:href="#DejaVuSans-6d" transform="translate(381.640625 0.015625)"/>
       <use xlink:href="#DejaVuSans-6d" transform="translate(479.052734 0.015625)"/>
       <use xlink:href="#DejaVuSans-79" transform="translate(576.464844 0.015625)"/>
       <use xlink:href="#DejaVuSans-20" transform="translate(635.644531 0.015625)"/>
       <use xlink:href="#DejaVuSans-31" transform="translate(667.431641 0.015625)"/>
      </g>
     </g>
    </g>
    <g id="xtick_3">
     <g id="line2d_3">
      <g>
       <use xlink:href="#m707be24c87" x="176.640312" y="290.712" style="stroke: #000000; stroke-width: 0.8"/>
      </g>
     </g>
     <g id="text_3">
      <!-- dummy 1$-$dummy 2 -->
      <g transform="translate(101.828415 376.412985) rotate(-45) scale(0.1 -0.1)">
       <defs>
        <path id="DejaVuSans-32" d="M 1228 531 
L 3431 531 
L 3431 0 
L 469 0 
L 469 531 
Q 828 903 1448 1529 
Q 2069 2156 2228 2338 
Q 2531 2678 2651 2914 
Q 2772 3150 2772 3378 
Q 2772 3750 2511 3984 
Q 2250 4219 1831 4219 
Q 1534 4219 1204 4116 
Q 875 4013 500 3803 
L 500 4441 
Q 881 4594 1212 4672 
Q 1544 4750 1819 4750 
Q 2544 4750 2975 4387 
Q 3406 4025 3406 3419 
Q 3406 3131 3298 2873 
Q 3191 2616 2906 2266 
Q 2828 2175 2409 1742 
Q 1991 1309 1228 531 
z
" transform="scale(0.015625)"/>
       </defs>
       <use xlink:href="#DejaVuSans-64" transform="translate(0 0.015625)"/>
       <use xlink:href="#DejaVuSans-75" transform="translate(63.476562 0.015625)"/>
       <use xlink:href="#DejaVuSans-6d" transform="translate(126.855469 0.015625)"/>
       <use xlink:href="#DejaVuSans-6d" transform="translate(224.267578 0.015625)"/>
       <use xlink:href="#DejaVuSans-79" transform="translate(321.679688 0.015625)"/>
       <use xlink:href="#DejaVuSans-20" transform="translate(380.859375 0.015625)"/>
       <use xlink:href="#DejaVuSans-31" transform="translate(412.646484 0.015625)"/>
       <use xlink:href="#DejaVuSans-2212" transform="translate(476.269531 0.015625)"/>
       <use xlink:href="#DejaVuSans-64" transform="translate(560.058594 0.015625)"/>
       <use xlink:href="#DejaVuSans-75" transform="translate(623.535156 0.015625)"/>
       <use xlink:href="#DejaVuSans-6d" transform="translate(686.914062 0.015625)"/>
       <use xlink:href="#DejaVuSans-6d" transform="translate(784.326172 0.015625)"/>
       <use xlink:href="#DejaVuSans-79" transform="translate(881.738281 0.015625)"/>
       <use xlink:href="#DejaVuSans-20" transform="translate(940.917969 0.015625)"/>
       <use xlink:href="#DejaVuSans-32" transform="translate(972.705078 0.015625)"/>
      </g>
     </g>
    </g>
    <g id="xtick_4">
     <g id="line2d_4">
      <g>
       <use xlink:href="#m707be24c87" x="216.320312" y="290.712" style="stroke: #000000; stroke-width: 0.8"/>
      </g>
     </g>
     <g id="text_4">
      <!-- dummy 2$-$dummy 3 -->
      <g transform="translate(141.508415 376.412985) rotate(-45) scale(0.1 -0.1)">
       <defs>
        <path id="DejaVuSans-33" d="M 2597 2516 
Q 3050 2419 3304 2112 
Q 3559 1806 3559 1356 
Q 3559 666 3084 287 
Q 2609 -91 1734 -91 
Q 1441 -91 1130 -33 
Q 819 25 488 141 
L 488 750 
Q 750 597 1062 519 
Q 1375 441 1716 441 
Q 2309 441 2620 675 
Q 2931 909 2931 1356 
Q 2931 1769 2642 2001 
Q 2353 2234 1838 2234 
L 1294 2234 
L 1294 2753 
L 1863 2753 
Q 2328 2753 2575 2939 
Q 2822 3125 2822 3475 
Q 2822 3834 2567 4026 
Q 2313 4219 1838 4219 
Q 1578 4219 1281 4162 
Q 984 4106 628 3988 
L 628 4550 
Q 988 4650 1302 4700 
Q 1616 4750 1894 4750 
Q 2613 4750 3031 4423 
Q 3450 4097 3450 3541 
Q 3450 3153 3228 2886 
Q 3006 2619 2597 2516 
z
" transform="scale(0.015625)"/>
       </defs>
       <use xlink:href="#DejaVuSans-64" transform="translate(0 0.015625)"/>
       <use xlink:href="#DejaVuSans-75" transform="translate(63.476562 0.015625)"/>
       <use xlink:href="#DejaVuSans-6d" transform="translate(126.855469 0.015625)"/>
       <use xlink:href="#DejaVuSans-6d" transform="translate(224.267578 0.015625)"/>
       <use xlink:href="#DejaVuSans-79" transform="translate(321.679688 0.015625)"/>
       <use xlink:href="#DejaVuSans-20" transform="translate(380.859375 0.015625)"/>
       <use xlink:href="#DejaVuSans-32" transform="translate(412.646484 0.015625)"/>
       <use xlink:href="#DejaVuSans-2212" transform="translate(476.269531 0.015625)"/>
       <use xlink:href="#DejaVuSans-64" transform="translate(560.058594 0.015625)"/>
       <use xlink:href="#DejaVuSans-75" transform="translate(623.535156 0.015625)"/>
       <use xlink:href="#DejaVuSans-6d" transform="translate(686.914062 0.015625)"/>
       <use xlink:href="#DejaVuSans-6d" transform="translate(784.326172 0.015625)"/>
       <use xlink:href="#DejaVuSans-79" transform="translate(881.738281 0.015625)"/>
       <use xlink:href="#DejaVuSans-20" transform="translate(940.917969 0.015625)"/>
       <use xlink:href="#DejaVuSans-33" transform="translate(972.705078 0.015625)"/>
      </g>
     </g>
    </g>
    <g id="xtick_5">
     <g id="line2d_5">
      <g>
       <use xlink:href="#m707be24c87" x="256.000313" y="290.712" style="stroke: #000000; stroke-width: 0.8"/>
      </g>
     </g>
     <g id="text_5">
      <!-- dummy 3$-$Win1 -->
      <g transform="translate(196.956896 360.644504) rotate(-45) scale(0.1 -0.1)">
       <defs>
        <path id="DejaVuSans-57" d="M 213 4666 
L 850 4666 
L 1831 722 
L 2809 4666 
L 3519 4666 
L 4500 722 
L 5478 4666 
L 6119 4666 
L 4947 0 
L 4153 0 
L 3169 4050 
L 2175 0 
L 1381 0 
L 213 4666 
z
" transform="scale(0.015625)"/>
        <path id="DejaVuSans-69" d="M 603 3500 
L 1178 3500 
L 1178 0 
L 603 0 
L 603 3500 
z
M 603 4863 
L 1178 4863 
L 1178 4134 
L 603 4134 
L 603 4863 
z
" transform="scale(0.015625)"/>
        <path id="DejaVuSans-6e" d="M 3513 2113 
L 3513 0 
L 2938 0 
L 2938 2094 
Q 2938 2591 2744 2837 
Q 2550 3084 2163 3084 
Q 1697 3084 1428 2787 
Q 1159 2491 1159 1978 
L 1159 0 
L 581 0 
L 581 3500 
L 1159 3500 
L 1159 2956 
Q 1366 3272 1645 3428 
Q 1925 3584 2291 3584 
Q 2894 3584 3203 3211 
Q 3513 2838 3513 2113 
z
" transform="scale(0.015625)"/>
       </defs>
       <use xlink:href="#DejaVuSans-64" transform="translate(0 0.015625)"/>
       <use xlink:href="#DejaVuSans-75" transform="translate(63.476562 0.015625)"/>
       <use xlink:href="#DejaVuSans-6d" transform="translate(126.855469 0.015625)"/>
       <use xlink:href="#DejaVuSans-6d" transform="translate(224.267578 0.015625)"/>
       <use xlink:href="#DejaVuSans-79" transform="translate(321.679688 0.015625)"/>
       <use xlink:href="#DejaVuSans-20" transform="translate(380.859375 0.015625)"/>
       <use xlink:href="#DejaVuSans-33" transform="translate(412.646484 0.015625)"/>
       <use xlink:href="#DejaVuSans-2212" transform="translate(476.269531 0.015625)"/>
       <use xlink:href="#DejaVuSans-57" transform="translate(560.058594 0.015625)"/>
       <use xlink:href="#DejaVuSans-69" transform="translate(658.935547 0.015625)"/>
       <use xlink:href="#DejaVuSans-6e" transform="translate(686.71875 0.015625)"/>
       <use xlink:href="#DejaVuSans-31" transform="translate(750.097656 0.015625)"/>
      </g>
     </g>
    </g>
    <g id="xtick_6">
     <g id="line2d_6">
      <g>
       <use xlink:href="#m707be24c87" x="295.680313" y="290.712" style="stroke: #000000; stroke-width: 0.8"/>
      </g>
     </g>
     <g id="text_6">
      <!-- Win1$-$dummy 4 -->
      <g transform="translate(236.636896 360.644504) rotate(-45) scale(0.1 -0.1)">
       <defs>
        <path id="DejaVuSans-34" d="M 2419 4116 
L 825 1625 
L 2419 1625 
L 2419 4116 
z
M 2253 4666 
L 3047 4666 
L 3047 1625 
L 3713 1625 
L 3713 1100 
L 3047 1100 
L 3047 0 
L 2419 0 
L 2419 1100 
L 313 1100 
L 313 1709 
L 2253 4666 
z
" transform="scale(0.015625)"/>
       </defs>
       <use xlink:href="#DejaVuSans-57" transform="translate(0 0.015625)"/>
       <use xlink:href="#DejaVuSans-69" transform="translate(98.876953 0.015625)"/>
       <use xlink:href="#DejaVuSans-6e" transform="translate(126.660156 0.015625)"/>
       <use xlink:href="#DejaVuSans-31" transform="translate(190.039062 0.015625)"/>
       <use xlink:href="#DejaVuSans-2212" transform="translate(253.662109 0.015625)"/>
       <use xlink:href="#DejaVuSans-64" transform="translate(337.451172 0.015625)"/>
       <use xlink:href="#DejaVuSans-75" transform="translate(400.927734 0.015625)"/>
       <use xlink:href="#DejaVuSans-6d" transform="translate(464.306641 0.015625)"/>
       <use xlink:href="#DejaVuSans-6d" transform="translate(561.71875 0.015625)"/>
       <use xlink:href="#DejaVuSans-79" transform="translate(659.130859 0.015625)"/>
       <use xlink:href="#DejaVuSans-20" transform="translate(718.310547 0.015625)"/>
       <use xlink:href="#DejaVuSans-34" transform="translate(750.097656 0.015625)"/>
      </g>
     </g>
    </g>
    <g id="xtick_7">
     <g id="line2d_7">
      <g>
       <use xlink:href="#m707be24c87" x="335.360313" y="290.712" style="stroke: #000000; stroke-width: 0.8"/>
      </g>
     </g>
     <g id="text_7">
      <!-- dummy 4$-$dummy 5 -->
      <g transform="translate(260.548415 376.412985) rotate(-45) scale(0.1 -0.1)">
       <defs>
        <path id="DejaVuSans-35" d="M 691 4666 
L 3169 4666 
L 3169 4134 
L 1269 4134 
L 1269 2991 
Q 1406 3038 1543 3061 
Q 1681 3084 1819 3084 
Q 2600 3084 3056 2656 
Q 3513 2228 3513 1497 
Q 3513 744 3044 326 
Q 2575 -91 1722 -91 
Q 1428 -91 1123 -41 
Q 819 9 494 109 
L 494 744 
Q 775 591 1075 516 
Q 1375 441 1709 441 
Q 2250 441 2565 725 
Q 2881 1009 2881 1497 
Q 2881 1984 2565 2268 
Q 2250 2553 1709 2553 
Q 1456 2553 1204 2497 
Q 953 2441 691 2322 
L 691 4666 
z
" transform="scale(0.015625)"/>
       </defs>
       <use xlink:href="#DejaVuSans-64" transform="translate(0 0.015625)"/>
       <use xlink:href="#DejaVuSans-75" transform="translate(63.476562 0.015625)"/>
       <use xlink:href="#DejaVuSans-6d" transform="translate(126.855469 0.015625)"/>
       <use xlink:href="#DejaVuSans-6d" transform="translate(224.267578 0.015625)"/>
       <use xlink:href="#DejaVuSans-79" transform="translate(321.679688 0.015625)"/>
       <use xlink:href="#DejaVuSans-20" transform="translate(380.859375 0.015625)"/>
       <use xlink:href="#DejaVuSans-34" transform="translate(412.646484 0.015625)"/>
       <use xlink:href="#DejaVuSans-2212" transform="translate(476.269531 0.015625)"/>
       <use xlink:href="#DejaVuSans-64" transform="translate(560.058594 0.015625)"/>
       <use xlink:href="#DejaVuSans-75" transform="translate(623.535156 0.015625)"/>
       <use xlink:href="#DejaVuSans-6d" transform="translate(686.914062 0.015625)"/>
       <use xlink:href="#DejaVuSans-6d" transform="translate(784.326172 0.015625)"/>
       <use xlink:href="#DejaVuSans-79" transform="translate(881.738281 0.015625)"/>
       <use xlink:href="#DejaVuSans-20" transform="translate(940.917969 0.015625)"/>
       <use xlink:href="#DejaVuSans-35" transform="translate(972.705078 0.015625)"/>
      </g>
     </g>
    </g>
    <g id="xtick_8">
     <g id="line2d_8">
      <g>
       <use xlink:href="#m707be24c87" x="375.040313" y="290.712" style="stroke: #000000; stroke-width: 0.8"/>
      </g>
     </g>
     <g id="text_8">
      <!-- dummy 5$-$dummy 6 -->
      <g transform="translate(300.228415 376.412985) rotate(-45) scale(0.1 -0.1)">
       <defs>
        <path id="DejaVuSans-36" d="M 2113 2584 
Q 1688 2584 1439 2293 
Q 1191 2003 1191 1497 
Q 1191 994 1439 701 
Q 1688 409 2113 409 
Q 2538 409 2786 701 
Q 3034 994 3034 1497 
Q 3034 2003 2786 2293 
Q 2538 2584 2113 2584 
z
M 3366 4563 
L 3366 3988 
Q 3128 4100 2886 4159 
Q 2644 4219 2406 4219 
Q 1781 4219 1451 3797 
Q 1122 3375 1075 2522 
Q 1259 2794 1537 2939 
Q 1816 3084 2150 3084 
Q 2853 3084 3261 2657 
Q 3669 2231 3669 1497 
Q 3669 778 3244 343 
Q 2819 -91 2113 -91 
Q 1303 -91 875 529 
Q 447 1150 447 2328 
Q 447 3434 972 4092 
Q 1497 4750 2381 4750 
Q 2619 4750 2861 4703 
Q 3103 4656 3366 4563 
z
" transform="scale(0.015625)"/>
       </defs>
       <use xlink:href="#DejaVuSans-64" transform="translate(0 0.015625)"/>
       <use xlink:href="#DejaVuSans-75" transform="translate(63.476562 0.015625)"/>
       <use xlink:href="#DejaVuSans-6d" transform="translate(126.855469 0.015625)"/>
       <use xlink:href="#DejaVuSans-6d" transform="translate(224.267578 0.015625)"/>
       <use xlink:href="#DejaVuSans-79" transform="translate(321.679688 0.015625)"/>
       <use xlink:href="#DejaVuSans-20" transform="translate(380.859375 0.015625)"/>
       <use xlink:href="#DejaVuSans-35" transform="translate(412.646484 0.015625)"/>
       <use xlink:href="#DejaVuSans-2212" transform="translate(476.269531 0.015625)"/>
       <use xlink:href="#DejaVuSans-64" transform="translate(560.058594 0.015625)"/>
       <use xlink:href="#DejaVuSans-75" transform="translate(623.535156 0.015625)"/>
       <use xlink:href="#DejaVuSans-6d" transform="translate(686.914062 0.015625)"/>
       <use xlink:href="#DejaVuSans-6d" transform="translate(784.326172 0.015625)"/>
       <use xlink:href="#DejaVuSans-79" transform="translate(881.738281 0.015625)"/>
       <use xlink:href="#DejaVuSans-20" transform="translate(940.917969 0.015625)"/>
       <use xlink:href="#DejaVuSans-36" transform="translate(972.705078 0.015625)"/>
      </g>
     </g>
    </g>
    <g id="xtick_9">
     <g id="line2d_9">
      <g>
       <use xlink:href="#m707be24c87" x="414.720312" y="290.712" style="stroke: #000000; stroke-width: 0.8"/>
      </g>
     </g>
     <g id="text_9">
      <!-- dummy 6$-$Win2 -->
      <g transform="translate(355.676896 360.644504) rotate(-45) scale(0.1 -0.1)">
       <use xlink:href="#DejaVuSans-64" transform="translate(0 0.015625)"/>
       <use xlink:href="#DejaVuSans-75" transform="translate(63.476562 0.015625)"/>
       <use xlink:href="#DejaVuSans-6d" transform="translate(126.855469 0.015625)"/>
       <use xlink:href="#DejaVuSans-6d" transform="translate(224.267578 0.015625)"/>
       <use xlink:href="#DejaVuSans-79" transform="translate(321.679688 0.015625)"/>
       <use xlink:href="#DejaVuSans-20" transform="translate(380.859375 0.015625)"/>
       <use xlink:href="#DejaVuSans-36" transform="translate(412.646484 0.015625)"/>
       <use xlink:href="#DejaVuSans-2212" transform="translate(476.269531 0.015625)"/>
       <use xlink:href="#DejaVuSans-57" transform="translate(560.058594 0.015625)"/>
       <use xlink:href="#DejaVuSans-69" transform="translate(658.935547 0.015625)"/>
       <use xlink:href="#DejaVuSans-6e" transform="translate(686.71875 0.015625)"/>
       <use xlink:href="#DejaVuSans-32" transform="translate(750.097656 0.015625)"/>
      </g>
     </g>
    </g>
    <g id="text_10">
     <!-- Edges -->
     <g transform="translate(237.773438 391.016034) scale(0.12 -0.12)">
      <defs>
       <path id="DejaVuSans-45" d="M 628 4666 
L 3578 4666 
L 3578 4134 
L 1259 4134 
L 1259 2753 
L 3481 2753 
L 3481 2222 
L 1259 2222 
L 1259 531 
L 3634 531 
L 3634 0 
L 628 0 
L 628 4666 
z
" transform="scale(0.015625)"/>
       <path id="DejaVuSans-67" d="M 2906 1791 
Q 2906 2416 2648 2759 
Q 2391 3103 1925 3103 
Q 1463 3103 1205 2759 
Q 947 2416 947 1791 
Q 947 1169 1205 825 
Q 1463 481 1925 481 
Q 2391 481 2648 825 
Q 2906 1169 2906 1791 
z
M 3481 434 
Q 3481 -459 3084 -895 
Q 2688 -1331 1869 -1331 
Q 1566 -1331 1297 -1286 
Q 1028 -1241 775 -1147 
L 775 -588 
Q 1028 -725 1275 -790 
Q 1522 -856 1778 -856 
Q 2344 -856 2625 -561 
Q 2906 -266 2906 331 
L 2906 616 
Q 2728 306 2450 153 
Q 2172 0 1784 0 
Q 1141 0 747 490 
Q 353 981 353 1791 
Q 353 2603 747 3093 
Q 1141 3584 1784 3584 
Q 2172 3584 2450 3431 
Q 2728 3278 2906 2969 
L 2906 3500 
L 3481 3500 
L 3481 434 
z
" transform="scale(0.015625)"/>
       <path id="DejaVuSans-65" d="M 3597 1894 
L 3597 1613 
L 953 1613 
Q 991 1019 1311 708 
Q 1631 397 2203 397 
Q 2534 397 2845 478 
Q 3156 559 3463 722 
L 3463 178 
Q 3153 47 2828 -22 
Q 2503 -91 2169 -91 
Q 1331 -91 842 396 
Q 353 884 353 1716 
Q 353 2575 817 3079 
Q 1281 3584 2069 3584 
Q 2775 3584 3186 3129 
Q 3597 2675 3597 1894 
z
M 3022 2063 
Q 3016 2534 2758 2815 
Q 2500 3097 2075 3097 
Q 1594 3097 1305 2825 
Q 1016 2553 972 2059 
L 3022 2063 
z
" transform="scale(0.015625)"/>
       <path id="DejaVuSans-73" d="M 2834 3397 
L 2834 2853 
Q 2591 2978 2328 3040 
Q 2066 3103 1784 3103 
Q 1356 3103 1142 2972 
Q 928 2841 928 2578 
Q 928 2378 1081 2264 
Q 1234 2150 1697 2047 
L 1894 2003 
Q 2506 1872 2764 1633 
Q 3022 1394 3022 966 
Q 3022 478 2636 193 
Q 2250 -91 1575 -91 
Q 1294 -91 989 -36 
Q 684 19 347 128 
L 347 722 
Q 666 556 975 473 
Q 1284 391 1588 391 
Q 1994 391 2212 530 
Q 2431 669 2431 922 
Q 2431 1156 2273 1281 
Q 2116 1406 1581 1522 
L 1381 1569 
Q 847 1681 609 1914 
Q 372 2147 372 2553 
Q 372 3047 722 3315 
Q 1072 3584 1716 3584 
Q 2034 3584 2315 3537 
Q 2597 3491 2834 3397 
z
" transform="scale(0.015625)"/>
      </defs>
      <use xlink:href="#DejaVuSans-45"/>
      <use xlink:href="#DejaVuSans-64" x="63.183594"/>
      <use xlink:href="#DejaVuSans-67" x="126.660156"/>
      <use xlink:href="#DejaVuSans-65" x="190.136719"/>
      <use xlink:href="#DejaVuSans-73" x="251.660156"/>
     </g>
    </g>
   </g>
   <g id="matplotlib.axis_2">
    <g id="ytick_1">
     <g id="line2d_10">
      <defs>
       <path id="mb2ff47bb99" d="M 0 0 
L -3.5 0 
" style="stroke: #000000; stroke-width: 0.8"/>
      </defs>
      <g>
       <use xlink:href="#mb2ff47bb99" x="77.440313" y="37.9056" style="stroke: #000000; stroke-width: 0.8"/>
      </g>
     </g>
     <g id="text_11">
      <!-- 0 -->
      <g transform="translate(64.077813 41.704819) scale(0.1 -0.1)">
       <use xlink:href="#DejaVuSans-30"/>
      </g>
     </g>
    </g>
    <g id="ytick_2">
     <g id="line2d_11">
      <g>
       <use xlink:href="#mb2ff47bb99" x="77.440313" y="64.5168" style="stroke: #000000; stroke-width: 0.8"/>
      </g>
     </g>
     <g id="text_12">
      <!-- Aut -->
      <g transform="translate(53.341875 68.316019) scale(0.1 -0.1)">
       <use xlink:href="#DejaVuSans-41"/>
       <use xlink:href="#DejaVuSans-75" x="68.408203"/>
       <use xlink:href="#DejaVuSans-74" x="131.787109"/>
      </g>
     </g>
    </g>
    <g id="ytick_3">
     <g id="line2d_12">
      <g>
       <use xlink:href="#mb2ff47bb99" x="77.440313" y="91.128" style="stroke: #000000; stroke-width: 0.8"/>
      </g>
     </g>
     <g id="text_13">
      <!-- dummy 1 -->
      <g transform="translate(22.81375 94.927219) scale(0.1 -0.1)">
       <use xlink:href="#DejaVuSans-64"/>
       <use xlink:href="#DejaVuSans-75" x="63.476562"/>
       <use xlink:href="#DejaVuSans-6d" x="126.855469"/>
       <use xlink:href="#DejaVuSans-6d" x="224.267578"/>
       <use xlink:href="#DejaVuSans-79" x="321.679688"/>
       <use xlink:href="#DejaVuSans-20" x="380.859375"/>
       <use xlink:href="#DejaVuSans-31" x="412.646484"/>
      </g>
     </g>
    </g>
    <g id="ytick_4">
     <g id="line2d_13">
      <g>
       <use xlink:href="#mb2ff47bb99" x="77.440313" y="117.7392" style="stroke: #000000; stroke-width: 0.8"/>
      </g>
     </g>
     <g id="text_14">
      <!-- dummy 2 -->
      <g transform="translate(22.81375 121.538419) scale(0.1 -0.1)">
       <use xlink:href="#DejaVuSans-64"/>
       <use xlink:href="#DejaVuSans-75" x="63.476562"/>
       <use xlink:href="#DejaVuSans-6d" x="126.855469"/>
       <use xlink:href="#DejaVuSans-6d" x="224.267578"/>
       <use xlink:href="#DejaVuSans-79" x="321.679688"/>
       <use xlink:href="#DejaVuSans-20" x="380.859375"/>
       <use xlink:href="#DejaVuSans-32" x="412.646484"/>
      </g>
     </g>
    </g>
    <g id="ytick_5">
     <g id="line2d_14">
      <g>
       <use xlink:href="#mb2ff47bb99" x="77.440313" y="144.3504" style="stroke: #000000; stroke-width: 0.8"/>
      </g>
     </g>
     <g id="text_15">
      <!-- dummy 3 -->
      <g transform="translate(22.81375 148.149619) scale(0.1 -0.1)">
       <use xlink:href="#DejaVuSans-64"/>
       <use xlink:href="#DejaVuSans-75" x="63.476562"/>
       <use xlink:href="#DejaVuSans-6d" x="126.855469"/>
       <use xlink:href="#DejaVuSans-6d" x="224.267578"/>
       <use xlink:href="#DejaVuSans-79" x="321.679688"/>
       <use xlink:href="#DejaVuSans-20" x="380.859375"/>
       <use xlink:href="#DejaVuSans-33" x="412.646484"/>
      </g>
     </g>
    </g>
    <g id="ytick_6">
     <g id="line2d_15">
      <g>
       <use xlink:href="#mb2ff47bb99" x="77.440313" y="170.9616" style="stroke: #000000; stroke-width: 0.8"/>
      </g>
     </g>
     <g id="text_16">
      <!-- Win1 -->
      <g transform="translate(45.299688 174.760819) scale(0.1 -0.1)">
       <use xlink:href="#DejaVuSans-57"/>
       <use xlink:href="#DejaVuSans-69" x="96.626953"/>
       <use xlink:href="#DejaVuSans-6e" x="124.410156"/>
       <use xlink:href="#DejaVuSans-31" x="187.789062"/>
      </g>
     </g>
    </g>
    <g id="ytick_7">
     <g id="line2d_16">
      <g>
       <use xlink:href="#mb2ff47bb99" x="77.440313" y="197.5728" style="stroke: #000000; stroke-width: 0.8"/>
      </g>
     </g>
     <g id="text_17">
      <!-- dummy 4 -->
      <g transform="translate(22.81375 201.372019) scale(0.1 -0.1)">
       <use xlink:href="#DejaVuSans-64"/>
       <use xlink:href="#DejaVuSans-75" x="63.476562"/>
       <use xlink:href="#DejaVuSans-6d" x="126.855469"/>
       <use xlink:href="#DejaVuSans-6d" x="224.267578"/>
       <use xlink:href="#DejaVuSans-79" x="321.679688"/>
       <use xlink:href="#DejaVuSans-20" x="380.859375"/>
       <use xlink:href="#DejaVuSans-34" x="412.646484"/>
      </g>
     </g>
    </g>
    <g id="ytick_8">
     <g id="line2d_17">
      <g>
       <use xlink:href="#mb2ff47bb99" x="77.440313" y="224.184" style="stroke: #000000; stroke-width: 0.8"/>
      </g>
     </g>
     <g id="text_18">
      <!-- dummy 5 -->
      <g transform="translate(22.81375 227.983219) scale(0.1 -0.1)">
       <use xlink:href="#DejaVuSans-64"/>
       <use xlink:href="#DejaVuSans-75" x="63.476562"/>
       <use xlink:href="#DejaVuSans-6d" x="126.855469"/>
       <use xlink:href="#DejaVuSans-6d" x="224.267578"/>
       <use xlink:href="#DejaVuSans-79" x="321.679688"/>
       <use xlink:href="#DejaVuSans-20" x="380.859375"/>
       <use xlink:href="#DejaVuSans-35" x="412.646484"/>
      </g>
     </g>
    </g>
    <g id="ytick_9">
     <g id="line2d_18">
      <g>
       <use xlink:href="#mb2ff47bb99" x="77.440313" y="250.7952" style="stroke: #000000; stroke-width: 0.8"/>
      </g>
     </g>
     <g id="text_19">
      <!-- dummy 6 -->
      <g transform="translate(22.81375 254.594419) scale(0.1 -0.1)">
       <use xlink:href="#DejaVuSans-64"/>
       <use xlink:href="#DejaVuSans-75" x="63.476562"/>
       <use xlink:href="#DejaVuSans-6d" x="126.855469"/>
       <use xlink:href="#DejaVuSans-6d" x="224.267578"/>
       <use xlink:href="#DejaVuSans-79" x="321.679688"/>
       <use xlink:href="#DejaVuSans-20" x="380.859375"/>
       <use xlink:href="#DejaVuSans-36" x="412.646484"/>
      </g>
     </g>
    </g>
    <g id="ytick_10">
     <g id="line2d_19">
      <g>
       <use xlink:href="#mb2ff47bb99" x="77.440313" y="277.4064" style="stroke: #000000; stroke-width: 0.8"/>
      </g>
     </g>
     <g id="text_20">
      <!-- Win2 -->
      <g transform="translate(45.299688 281.205619) scale(0.1 -0.1)">
       <use xlink:href="#DejaVuSans-57"/>
       <use xlink:href="#DejaVuSans-69" x="96.626953"/>
       <use xlink:href="#DejaVuSans-6e" x="124.410156"/>
       <use xlink:href="#DejaVuSans-32" x="187.789062"/>
      </g>
     </g>
    </g>
    <g id="text_21">
     <!-- Nodes -->
     <g transform="translate(16.318125 176.442562) rotate(-90) scale(0.12 -0.12)">
      <defs>
       <path id="DejaVuSans-4e" d="M 628 4666 
L 1478 4666 
L 3547 763 
L 3547 4666 
L 4159 4666 
L 4159 0 
L 3309 0 
L 1241 3903 
L 1241 0 
L 628 0 
L 628 4666 
z
" transform="scale(0.015625)"/>
       <path id="DejaVuSans-6f" d="M 1959 3097 
Q 1497 3097 1228 2736 
Q 959 2375 959 1747 
Q 959 1119 1226 758 
Q 1494 397 1959 397 
Q 2419 397 2687 759 
Q 2956 1122 2956 1747 
Q 2956 2369 2687 2733 
Q 2419 3097 1959 3097 
z
M 1959 3584 
Q 2709 3584 3137 3096 
Q 3566 2609 3566 1747 
Q 3566 888 3137 398 
Q 2709 -91 1959 -91 
Q 1206 -91 779 398 
Q 353 888 353 1747 
Q 353 2609 779 3096 
Q 1206 3584 1959 3584 
z
" transform="scale(0.015625)"/>
      </defs>
      <use xlink:href="#DejaVuSans-4e"/>
      <use xlink:href="#DejaVuSans-6f" x="74.804688"/>
      <use xlink:href="#DejaVuSans-64" x="135.986328"/>
      <use xlink:href="#DejaVuSans-65" x="199.462891"/>
      <use xlink:href="#DejaVuSans-73" x="260.986328"/>
     </g>
    </g>
   </g>
   <g id="line2d_20">
    <path d="M 77.440313 51.2112 
L 434.560313 51.2112 
" clip-path="url(#pfeff4775b3)" style="fill: none; stroke: #000000; stroke-width: 0.5; stroke-linecap: square"/>
   </g>
   <g id="line2d_21">
    <path d="M 77.440313 77.8224 
L 434.560313 77.8224 
" clip-path="url(#pfeff4775b3)" style="fill: none; stroke: #000000; stroke-width: 0.5; stroke-linecap: square"/>
   </g>
   <g id="line2d_22">
    <path d="M 77.440313 104.4336 
L 434.560313 104.4336 
" clip-path="url(#pfeff4775b3)" style="fill: none; stroke: #000000; stroke-width: 0.5; stroke-linecap: square"/>
   </g>
   <g id="line2d_23">
    <path d="M 77.440313 131.0448 
L 434.560313 131.0448 
" clip-path="url(#pfeff4775b3)" style="fill: none; stroke: #000000; stroke-width: 0.5; stroke-linecap: square"/>
   </g>
   <g id="line2d_24">
    <path d="M 77.440313 157.656 
L 434.560313 157.656 
" clip-path="url(#pfeff4775b3)" style="fill: none; stroke: #000000; stroke-width: 0.5; stroke-linecap: square"/>
   </g>
   <g id="line2d_25">
    <path d="M 77.440313 184.2672 
L 434.560313 184.2672 
" clip-path="url(#pfeff4775b3)" style="fill: none; stroke: #000000; stroke-width: 0.5; stroke-linecap: square"/>
   </g>
   <g id="line2d_26">
    <path d="M 77.440313 210.8784 
L 434.560313 210.8784 
" clip-path="url(#pfeff4775b3)" style="fill: none; stroke: #000000; stroke-width: 0.5; stroke-linecap: square"/>
   </g>
   <g id="line2d_27">
    <path d="M 77.440313 237.4896 
L 434.560313 237.4896 
" clip-path="url(#pfeff4775b3)" style="fill: none; stroke: #000000; stroke-width: 0.5; stroke-linecap: square"/>
   </g>
   <g id="line2d_28">
    <path d="M 77.440313 264.1008 
L 434.560313 264.1008 
" clip-path="url(#pfeff4775b3)" style="fill: none; stroke: #000000; stroke-width: 0.5; stroke-linecap: square"/>
   </g>
   <g id="line2d_29">
    <path d="M 117.120313 290.712 
L 117.120313 24.6 
" clip-path="url(#pfeff4775b3)" style="fill: none; stroke: #000000; stroke-width: 0.5; stroke-linecap: square"/>
   </g>
   <g id="line2d_30">
    <path d="M 156.800313 290.712 
L 156.800313 24.6 
" clip-path="url(#pfeff4775b3)" style="fill: none; stroke: #000000; stroke-width: 0.5; stroke-linecap: square"/>
   </g>
   <g id="line2d_31">
    <path d="M 196.480312 290.712 
L 196.480312 24.6 
" clip-path="url(#pfeff4775b3)" style="fill: none; stroke: #000000; stroke-width: 0.5; stroke-linecap: square"/>
   </g>
   <g id="line2d_32">
    <path d="M 236.160313 290.712 
L 236.160313 24.6 
" clip-path="url(#pfeff4775b3)" style="fill: none; stroke: #000000; stroke-width: 0.5; stroke-linecap: square"/>
   </g>
   <g id="line2d_33">
    <path d="M 275.840312 290.712 
L 275.840312 24.6 
" clip-path="url(#pfeff4775b3)" style="fill: none; stroke: #000000; stroke-width: 0.5; stroke-linecap: square"/>
   </g>
   <g id="line2d_34">
    <path d="M 315.520312 290.712 
L 315.520312 24.6 
" clip-path="url(#pfeff4775b3)" style="fill: none; stroke: #000000; stroke-width: 0.5; stroke-linecap: square"/>
   </g>
   <g id="line2d_35">
    <path d="M 355.200312 290.712 
L 355.200312 24.6 
" clip-path="url(#pfeff4775b3)" style="fill: none; stroke: #000000; stroke-width: 0.5; stroke-linecap: square"/>
   </g>
   <g id="line2d_36">
    <path d="M 394.880313 290.712 
L 394.880313 24.6 
" clip-path="url(#pfeff4775b3)" style="fill: none; stroke: #000000; stroke-width: 0.5; stroke-linecap: square"/>
   </g>
   <g id="line2d_37">
    <path d="M 434.560313 290.712 
L 434.560313 24.6 
" clip-path="url(#pfeff4775b3)" style="fill: none; stroke: #000000; stroke-width: 0.5; stroke-linecap: square"/>
   </g>
   <g id="patch_3">
    <path d="M 77.440313 290.712 
L 77.440313 24.6 
" style="fill: none; stroke: #000000; stroke-width: 0.8; stroke-linejoin: miter; stroke-linecap: square"/>
   </g>
   <g id="patch_4">
    <path d="M 434.560313 290.712 
L 434.560313 24.6 
" style="fill: none; stroke: #000000; stroke-width: 0.8; stroke-linejoin: miter; stroke-linecap: square"/>
   </g>
   <g id="patch_5">
    <path d="M 77.440313 290.712 
L 434.560313 290.712 
" style="fill: none; stroke: #000000; stroke-width: 0.8; stroke-linejoin: miter; stroke-linecap: square"/>
   </g>
   <g id="patch_6">
    <path d="M 77.440313 24.6 
L 434.560313 24.6 
" style="fill: none; stroke: #000000; stroke-width: 0.8; stroke-linejoin: miter; stroke-linecap: square"/>
   </g>
   <g id="text_22">
    <!-- 0 -->
    <g transform="translate(94.531094 40.354819) scale(0.1 -0.1)">
     <defs>
      <path id="Consolas-30" d="M 3244 2041 
Q 3244 1572 3150 1186 
Q 3056 800 2865 523 
Q 2675 247 2392 95 
Q 2109 -56 1728 -56 
Q 1400 -56 1131 67 
Q 863 191 672 447 
Q 481 703 378 1100 
Q 275 1497 275 2041 
Q 275 2509 370 2896 
Q 466 3284 655 3561 
Q 844 3838 1128 3989 
Q 1413 4141 1791 4141 
Q 2119 4141 2387 4017 
Q 2656 3894 2847 3636 
Q 3038 3378 3141 2981 
Q 3244 2584 3244 2041 
z
M 2694 2022 
Q 2694 2128 2686 2233 
Q 2678 2338 2669 2438 
L 941 1153 
Q 988 991 1059 853 
Q 1131 716 1232 617 
Q 1334 519 1464 464 
Q 1594 409 1759 409 
Q 1972 409 2145 512 
Q 2319 616 2441 819 
Q 2563 1022 2628 1323 
Q 2694 1625 2694 2022 
z
M 825 2059 
Q 825 1963 826 1866 
Q 828 1769 838 1678 
L 2566 2956 
Q 2519 3116 2447 3247 
Q 2375 3378 2275 3473 
Q 2175 3569 2047 3622 
Q 1919 3675 1759 3675 
Q 1547 3675 1373 3572 
Q 1200 3469 1078 3264 
Q 956 3059 890 2757 
Q 825 2456 825 2059 
z
" transform="scale(0.015625)"/>
     </defs>
     <use xlink:href="#Consolas-30"/>
    </g>
   </g>
   <g id="text_23">
    <!-- 0 -->
    <g transform="translate(134.211094 40.354819) scale(0.1 -0.1)">
     <use xlink:href="#Consolas-30"/>
    </g>
   </g>
   <g id="text_24">
    <!-- 0 -->
    <g transform="translate(173.891094 40.354819) scale(0.1 -0.1)">
     <use xlink:href="#Consolas-30"/>
    </g>
   </g>
   <g id="text_25">
    <!-- 0 -->
    <g transform="translate(213.571094 40.354819) scale(0.1 -0.1)">
     <use xlink:href="#Consolas-30"/>
    </g>
   </g>
   <g id="text_26">
    <!-- 0 -->
    <g transform="translate(253.251094 40.354819) scale(0.1 -0.1)">
     <use xlink:href="#Consolas-30"/>
    </g>
   </g>
   <g id="text_27">
    <!-- 0 -->
    <g transform="translate(292.931094 40.354819) scale(0.1 -0.1)">
     <use xlink:href="#Consolas-30"/>
    </g>
   </g>
   <g id="text_28">
    <!-- 0 -->
    <g transform="translate(332.611094 40.354819) scale(0.1 -0.1)">
     <use xlink:href="#Consolas-30"/>
    </g>
   </g>
   <g id="text_29">
    <!-- 0 -->
    <g transform="translate(372.291094 40.354819) scale(0.1 -0.1)">
     <use xlink:href="#Consolas-30"/>
    </g>
   </g>
   <g id="text_30">
    <!-- 0 -->
    <g transform="translate(411.971094 40.354819) scale(0.1 -0.1)">
     <use xlink:href="#Consolas-30"/>
    </g>
   </g>
   <g id="text_31">
    <!-- 1 -->
    <g transform="translate(94.531094 66.966019) scale(0.1 -0.1)">
     <defs>
      <path id="Consolas-31" d="M 3116 0 
L 550 0 
L 550 506 
L 1600 506 
L 1600 3488 
L 622 2956 
L 422 3419 
L 1722 4103 
L 2203 4103 
L 2203 506 
L 3116 506 
L 3116 0 
z
" transform="scale(0.015625)"/>
     </defs>
     <use xlink:href="#Consolas-31"/>
    </g>
   </g>
   <g id="text_32">
    <!-- 0 -->
    <g transform="translate(134.211094 66.966019) scale(0.1 -0.1)">
     <use xlink:href="#Consolas-30"/>
    </g>
   </g>
   <g id="text_33">
    <!-- 0 -->
    <g transform="translate(173.891094 66.966019) scale(0.1 -0.1)">
     <use xlink:href="#Consolas-30"/>
    </g>
   </g>
   <g id="text_34">
    <!-- 0 -->
    <g transform="translate(213.571094 66.966019) scale(0.1 -0.1)">
     <use xlink:href="#Consolas-30"/>
    </g>
   </g>
   <g id="text_35">
    <!-- 0 -->
    <g transform="translate(253.251094 66.966019) scale(0.1 -0.1)">
     <use xlink:href="#Consolas-30"/>
    </g>
   </g>
   <g id="text_36">
    <!-- 0 -->
    <g transform="translate(292.931094 66.966019) scale(0.1 -0.1)">
     <use xlink:href="#Consolas-30"/>
    </g>
   </g>
   <g id="text_37">
    <!-- 0 -->
    <g transform="translate(332.611094 66.966019) scale(0.1 -0.1)">
     <use xlink:href="#Consolas-30"/>
    </g>
   </g>
   <g id="text_38">
    <!-- 0 -->
    <g transform="translate(372.291094 66.966019) scale(0.1 -0.1)">
     <use xlink:href="#Consolas-30"/>
    </g>
   </g>
   <g id="text_39">
    <!-- 0 -->
    <g transform="translate(411.971094 66.966019) scale(0.1 -0.1)">
     <use xlink:href="#Consolas-30"/>
    </g>
   </g>
   <g id="text_40">
    <!-- 1 -->
    <g transform="translate(94.531094 93.577219) scale(0.1 -0.1)">
     <use xlink:href="#Consolas-31"/>
    </g>
   </g>
   <g id="text_41">
    <!-- 1 -->
    <g transform="translate(134.211094 93.577219) scale(0.1 -0.1)">
     <use xlink:href="#Consolas-31"/>
    </g>
   </g>
   <g id="text_42">
    <!-- 0 -->
    <g transform="translate(173.891094 93.577219) scale(0.1 -0.1)">
     <use xlink:href="#Consolas-30"/>
    </g>
   </g>
   <g id="text_43">
    <!-- 0 -->
    <g transform="translate(213.571094 93.577219) scale(0.1 -0.1)">
     <use xlink:href="#Consolas-30"/>
    </g>
   </g>
   <g id="text_44">
    <!-- 0 -->
    <g transform="translate(253.251094 93.577219) scale(0.1 -0.1)">
     <use xlink:href="#Consolas-30"/>
    </g>
   </g>
   <g id="text_45">
    <!-- 0 -->
    <g transform="translate(292.931094 93.577219) scale(0.1 -0.1)">
     <use xlink:href="#Consolas-30"/>
    </g>
   </g>
   <g id="text_46">
    <!-- 0 -->
    <g transform="translate(332.611094 93.577219) scale(0.1 -0.1)">
     <use xlink:href="#Consolas-30"/>
    </g>
   </g>
   <g id="text_47">
    <!-- 0 -->
    <g transform="translate(372.291094 93.577219) scale(0.1 -0.1)">
     <use xlink:href="#Consolas-30"/>
    </g>
   </g>
   <g id="text_48">
    <!-- 0 -->
    <g transform="translate(411.971094 93.577219) scale(0.1 -0.1)">
     <use xlink:href="#Consolas-30"/>
    </g>
   </g>
   <g id="text_49">
    <!-- 1 -->
    <g transform="translate(94.531094 120.188419) scale(0.1 -0.1)">
     <use xlink:href="#Consolas-31"/>
    </g>
   </g>
   <g id="text_50">
    <!-- 1 -->
    <g transform="translate(134.211094 120.188419) scale(0.1 -0.1)">
     <use xlink:href="#Consolas-31"/>
    </g>
   </g>
   <g id="text_51">
    <!-- 1 -->
    <g transform="translate(173.891094 120.188419) scale(0.1 -0.1)">
     <use xlink:href="#Consolas-31"/>
    </g>
   </g>
   <g id="text_52">
    <!-- 0 -->
    <g transform="translate(213.571094 120.188419) scale(0.1 -0.1)">
     <use xlink:href="#Consolas-30"/>
    </g>
   </g>
   <g id="text_53">
    <!-- 0 -->
    <g transform="translate(253.251094 120.188419) scale(0.1 -0.1)">
     <use xlink:href="#Consolas-30"/>
    </g>
   </g>
   <g id="text_54">
    <!-- 0 -->
    <g transform="translate(292.931094 120.188419) scale(0.1 -0.1)">
     <use xlink:href="#Consolas-30"/>
    </g>
   </g>
   <g id="text_55">
    <!-- 0 -->
    <g transform="translate(332.611094 120.188419) scale(0.1 -0.1)">
     <use xlink:href="#Consolas-30"/>
    </g>
   </g>
   <g id="text_56">
    <!-- 0 -->
    <g transform="translate(372.291094 120.188419) scale(0.1 -0.1)">
     <use xlink:href="#Consolas-30"/>
    </g>
   </g>
   <g id="text_57">
    <!-- 0 -->
    <g transform="translate(411.971094 120.188419) scale(0.1 -0.1)">
     <use xlink:href="#Consolas-30"/>
    </g>
   </g>
   <g id="text_58">
    <!-- 1 -->
    <g transform="translate(94.531094 146.799619) scale(0.1 -0.1)">
     <use xlink:href="#Consolas-31"/>
    </g>
   </g>
   <g id="text_59">
    <!-- 1 -->
    <g transform="translate(134.211094 146.799619) scale(0.1 -0.1)">
     <use xlink:href="#Consolas-31"/>
    </g>
   </g>
   <g id="text_60">
    <!-- 1 -->
    <g transform="translate(173.891094 146.799619) scale(0.1 -0.1)">
     <use xlink:href="#Consolas-31"/>
    </g>
   </g>
   <g id="text_61">
    <!-- 1 -->
    <g transform="translate(213.571094 146.799619) scale(0.1 -0.1)">
     <use xlink:href="#Consolas-31"/>
    </g>
   </g>
   <g id="text_62">
    <!-- 0 -->
    <g transform="translate(253.251094 146.799619) scale(0.1 -0.1)">
     <use xlink:href="#Consolas-30"/>
    </g>
   </g>
   <g id="text_63">
    <!-- 0 -->
    <g transform="translate(292.931094 146.799619) scale(0.1 -0.1)">
     <use xlink:href="#Consolas-30"/>
    </g>
   </g>
   <g id="text_64">
    <!-- 0 -->
    <g transform="translate(332.611094 146.799619) scale(0.1 -0.1)">
     <use xlink:href="#Consolas-30"/>
    </g>
   </g>
   <g id="text_65">
    <!-- 0 -->
    <g transform="translate(372.291094 146.799619) scale(0.1 -0.1)">
     <use xlink:href="#Consolas-30"/>
    </g>
   </g>
   <g id="text_66">
    <!-- 0 -->
    <g transform="translate(411.971094 146.799619) scale(0.1 -0.1)">
     <use xlink:href="#Consolas-30"/>
    </g>
   </g>
   <g id="text_67">
    <!-- 1 -->
    <g transform="translate(94.531094 173.410819) scale(0.1 -0.1)">
     <use xlink:href="#Consolas-31"/>
    </g>
   </g>
   <g id="text_68">
    <!-- 1 -->
    <g transform="translate(134.211094 173.410819) scale(0.1 -0.1)">
     <use xlink:href="#Consolas-31"/>
    </g>
   </g>
   <g id="text_69">
    <!-- 1 -->
    <g transform="translate(173.891094 173.410819) scale(0.1 -0.1)">
     <use xlink:href="#Consolas-31"/>
    </g>
   </g>
   <g id="text_70">
    <!-- 1 -->
    <g transform="translate(213.571094 173.410819) scale(0.1 -0.1)">
     <use xlink:href="#Consolas-31"/>
    </g>
   </g>
   <g id="text_71">
    <!-- 1 -->
    <g transform="translate(253.251094 173.410819) scale(0.1 -0.1)">
     <use xlink:href="#Consolas-31"/>
    </g>
   </g>
   <g id="text_72">
    <!-- 0 -->
    <g transform="translate(292.931094 173.410819) scale(0.1 -0.1)">
     <use xlink:href="#Consolas-30"/>
    </g>
   </g>
   <g id="text_73">
    <!-- 0 -->
    <g transform="translate(332.611094 173.410819) scale(0.1 -0.1)">
     <use xlink:href="#Consolas-30"/>
    </g>
   </g>
   <g id="text_74">
    <!-- 0 -->
    <g transform="translate(372.291094 173.410819) scale(0.1 -0.1)">
     <use xlink:href="#Consolas-30"/>
    </g>
   </g>
   <g id="text_75">
    <!-- 0 -->
    <g transform="translate(411.971094 173.410819) scale(0.1 -0.1)">
     <use xlink:href="#Consolas-30"/>
    </g>
   </g>
   <g id="text_76">
    <!-- 1 -->
    <g transform="translate(94.531094 200.022019) scale(0.1 -0.1)">
     <use xlink:href="#Consolas-31"/>
    </g>
   </g>
   <g id="text_77">
    <!-- 1 -->
    <g transform="translate(134.211094 200.022019) scale(0.1 -0.1)">
     <use xlink:href="#Consolas-31"/>
    </g>
   </g>
   <g id="text_78">
    <!-- 1 -->
    <g transform="translate(173.891094 200.022019) scale(0.1 -0.1)">
     <use xlink:href="#Consolas-31"/>
    </g>
   </g>
   <g id="text_79">
    <!-- 1 -->
    <g transform="translate(213.571094 200.022019) scale(0.1 -0.1)">
     <use xlink:href="#Consolas-31"/>
    </g>
   </g>
   <g id="text_80">
    <!-- 1 -->
    <g transform="translate(253.251094 200.022019) scale(0.1 -0.1)">
     <use xlink:href="#Consolas-31"/>
    </g>
   </g>
   <g id="text_81">
    <!-- 1 -->
    <g transform="translate(292.931094 200.022019) scale(0.1 -0.1)">
     <use xlink:href="#Consolas-31"/>
    </g>
   </g>
   <g id="text_82">
    <!-- 0 -->
    <g transform="translate(332.611094 200.022019) scale(0.1 -0.1)">
     <use xlink:href="#Consolas-30"/>
    </g>
   </g>
   <g id="text_83">
    <!-- 0 -->
    <g transform="translate(372.291094 200.022019) scale(0.1 -0.1)">
     <use xlink:href="#Consolas-30"/>
    </g>
   </g>
   <g id="text_84">
    <!-- 0 -->
    <g transform="translate(411.971094 200.022019) scale(0.1 -0.1)">
     <use xlink:href="#Consolas-30"/>
    </g>
   </g>
   <g id="text_85">
    <!-- 1 -->
    <g transform="translate(94.531094 226.633219) scale(0.1 -0.1)">
     <use xlink:href="#Consolas-31"/>
    </g>
   </g>
   <g id="text_86">
    <!-- 1 -->
    <g transform="translate(134.211094 226.633219) scale(0.1 -0.1)">
     <use xlink:href="#Consolas-31"/>
    </g>
   </g>
   <g id="text_87">
    <!-- 1 -->
    <g transform="translate(173.891094 226.633219) scale(0.1 -0.1)">
     <use xlink:href="#Consolas-31"/>
    </g>
   </g>
   <g id="text_88">
    <!-- 1 -->
    <g transform="translate(213.571094 226.633219) scale(0.1 -0.1)">
     <use xlink:href="#Consolas-31"/>
    </g>
   </g>
   <g id="text_89">
    <!-- 1 -->
    <g transform="translate(253.251094 226.633219) scale(0.1 -0.1)">
     <use xlink:href="#Consolas-31"/>
    </g>
   </g>
   <g id="text_90">
    <!-- 1 -->
    <g transform="translate(292.931094 226.633219) scale(0.1 -0.1)">
     <use xlink:href="#Consolas-31"/>
    </g>
   </g>
   <g id="text_91">
    <!-- 1 -->
    <g transform="translate(332.611094 226.633219) scale(0.1 -0.1)">
     <use xlink:href="#Consolas-31"/>
    </g>
   </g>
   <g id="text_92">
    <!-- 0 -->
    <g transform="translate(372.291094 226.633219) scale(0.1 -0.1)">
     <use xlink:href="#Consolas-30"/>
    </g>
   </g>
   <g id="text_93">
    <!-- 0 -->
    <g transform="translate(411.971094 226.633219) scale(0.1 -0.1)">
     <use xlink:href="#Consolas-30"/>
    </g>
   </g>
   <g id="text_94">
    <!-- 1 -->
    <g transform="translate(94.531094 253.244419) scale(0.1 -0.1)">
     <use xlink:href="#Consolas-31"/>
    </g>
   </g>
   <g id="text_95">
    <!-- 1 -->
    <g transform="translate(134.211094 253.244419) scale(0.1 -0.1)">
     <use xlink:href="#Consolas-31"/>
    </g>
   </g>
   <g id="text_96">
    <!-- 1 -->
    <g transform="translate(173.891094 253.244419) scale(0.1 -0.1)">
     <use xlink:href="#Consolas-31"/>
    </g>
   </g>
   <g id="text_97">
    <!-- 1 -->
    <g transform="translate(213.571094 253.244419) scale(0.1 -0.1)">
     <use xlink:href="#Consolas-31"/>
    </g>
   </g>
   <g id="text_98">
    <!-- 1 -->
    <g transform="translate(253.251094 253.244419) scale(0.1 -0.1)">
     <use xlink:href="#Consolas-31"/>
    </g>
   </g>
   <g id="text_99">
    <!-- 1 -->
    <g transform="translate(292.931094 253.244419) scale(0.1 -0.1)">
     <use xlink:href="#Consolas-31"/>
    </g>
   </g>
   <g id="text_100">
    <!-- 1 -->
    <g transform="translate(332.611094 253.244419) scale(0.1 -0.1)">
     <use xlink:href="#Consolas-31"/>
    </g>
   </g>
   <g id="text_101">
    <!-- 1 -->
    <g transform="translate(372.291094 253.244419) scale(0.1 -0.1)">
     <use xlink:href="#Consolas-31"/>
    </g>
   </g>
   <g id="text_102">
    <!-- 0 -->
    <g transform="translate(411.971094 253.244419) scale(0.1 -0.1)">
     <use xlink:href="#Consolas-30"/>
    </g>
   </g>
   <g id="text_103">
    <!-- 1 -->
    <g transform="translate(94.531094 279.855619) scale(0.1 -0.1)">
     <use xlink:href="#Consolas-31"/>
    </g>
   </g>
   <g id="text_104">
    <!-- 1 -->
    <g transform="translate(134.211094 279.855619) scale(0.1 -0.1)">
     <use xlink:href="#Consolas-31"/>
    </g>
   </g>
   <g id="text_105">
    <!-- 1 -->
    <g transform="translate(173.891094 279.855619) scale(0.1 -0.1)">
     <use xlink:href="#Consolas-31"/>
    </g>
   </g>
   <g id="text_106">
    <!-- 1 -->
    <g transform="translate(213.571094 279.855619) scale(0.1 -0.1)">
     <use xlink:href="#Consolas-31"/>
    </g>
   </g>
   <g id="text_107">
    <!-- 1 -->
    <g transform="translate(253.251094 279.855619) scale(0.1 -0.1)">
     <use xlink:href="#Consolas-31"/>
    </g>
   </g>
   <g id="text_108">
    <!-- 1 -->
    <g transform="translate(292.931094 279.855619) scale(0.1 -0.1)">
     <use xlink:href="#Consolas-31"/>
    </g>
   </g>
   <g id="text_109">
    <!-- 1 -->
    <g transform="translate(332.611094 279.855619) scale(0.1 -0.1)">
     <use xlink:href="#Consolas-31"/>
    </g>
   </g>
   <g id="text_110">
    <!-- 1 -->
    <g transform="translate(372.291094 279.855619) scale(0.1 -0.1)">
     <use xlink:href="#Consolas-31"/>
    </g>
   </g>
   <g id="text_111">
    <!-- 1 -->
    <g transform="translate(411.971094 279.855619) scale(0.1 -0.1)">
     <use xlink:href="#Consolas-31"/>
    </g>
   </g>
   <g id="text_112">
    <!-- Nodes $vs$ Edges Matrix -->
    <g transform="translate(170.575312 18.6) scale(0.15 -0.15)">
     <defs>
      <path id="DejaVuSans-Oblique-76" d="M 459 3500 
L 1069 3500 
L 1581 525 
L 3256 3500 
L 3866 3500 
L 1875 0 
L 1100 0 
L 459 3500 
z
" transform="scale(0.015625)"/>
      <path id="DejaVuSans-Oblique-73" d="M 3200 3397 
L 3091 2853 
Q 2863 2978 2609 3040 
Q 2356 3103 2088 3103 
Q 1634 3103 1373 2948 
Q 1113 2794 1113 2528 
Q 1113 2219 1719 2053 
Q 1766 2041 1788 2034 
L 1972 1978 
Q 2547 1819 2739 1644 
Q 2931 1469 2931 1166 
Q 2931 609 2489 259 
Q 2047 -91 1331 -91 
Q 1053 -91 747 -37 
Q 441 16 72 128 
L 184 722 
Q 500 559 806 475 
Q 1113 391 1394 391 
Q 1816 391 2080 572 
Q 2344 753 2344 1031 
Q 2344 1331 1650 1516 
L 1591 1531 
L 1394 1581 
Q 956 1697 753 1886 
Q 550 2075 550 2369 
Q 550 2928 970 3256 
Q 1391 3584 2113 3584 
Q 2397 3584 2667 3537 
Q 2938 3491 3200 3397 
z
" transform="scale(0.015625)"/>
      <path id="DejaVuSans-4d" d="M 628 4666 
L 1569 4666 
L 2759 1491 
L 3956 4666 
L 4897 4666 
L 4897 0 
L 4281 0 
L 4281 4097 
L 3078 897 
L 2444 897 
L 1241 4097 
L 1241 0 
L 628 0 
L 628 4666 
z
" transform="scale(0.015625)"/>
      <path id="DejaVuSans-61" d="M 2194 1759 
Q 1497 1759 1228 1600 
Q 959 1441 959 1056 
Q 959 750 1161 570 
Q 1363 391 1709 391 
Q 2188 391 2477 730 
Q 2766 1069 2766 1631 
L 2766 1759 
L 2194 1759 
z
M 3341 1997 
L 3341 0 
L 2766 0 
L 2766 531 
Q 2569 213 2275 61 
Q 1981 -91 1556 -91 
Q 1019 -91 701 211 
Q 384 513 384 1019 
Q 384 1609 779 1909 
Q 1175 2209 1959 2209 
L 2766 2209 
L 2766 2266 
Q 2766 2663 2505 2880 
Q 2244 3097 1772 3097 
Q 1472 3097 1187 3025 
Q 903 2953 641 2809 
L 641 3341 
Q 956 3463 1253 3523 
Q 1550 3584 1831 3584 
Q 2591 3584 2966 3190 
Q 3341 2797 3341 1997 
z
" transform="scale(0.015625)"/>
      <path id="DejaVuSans-72" d="M 2631 2963 
Q 2534 3019 2420 3045 
Q 2306 3072 2169 3072 
Q 1681 3072 1420 2755 
Q 1159 2438 1159 1844 
L 1159 0 
L 581 0 
L 581 3500 
L 1159 3500 
L 1159 2956 
Q 1341 3275 1631 3429 
Q 1922 3584 2338 3584 
Q 2397 3584 2469 3576 
Q 2541 3569 2628 3553 
L 2631 2963 
z
" transform="scale(0.015625)"/>
      <path id="DejaVuSans-78" d="M 3513 3500 
L 2247 1797 
L 3578 0 
L 2900 0 
L 1881 1375 
L 863 0 
L 184 0 
L 1544 1831 
L 300 3500 
L 978 3500 
L 1906 2253 
L 2834 3500 
L 3513 3500 
z
" transform="scale(0.015625)"/>
     </defs>
     <use xlink:href="#DejaVuSans-4e" transform="translate(0 0.015625)"/>
     <use xlink:href="#DejaVuSans-6f" transform="translate(74.804688 0.015625)"/>
     <use xlink:href="#DejaVuSans-64" transform="translate(135.986328 0.015625)"/>
     <use xlink:href="#DejaVuSans-65" transform="translate(199.462891 0.015625)"/>
     <use xlink:href="#DejaVuSans-73" transform="translate(260.986328 0.015625)"/>
     <use xlink:href="#DejaVuSans-20" transform="translate(313.085938 0.015625)"/>
     <use xlink:href="#DejaVuSans-Oblique-76" transform="translate(344.873047 0.015625)"/>
     <use xlink:href="#DejaVuSans-Oblique-73" transform="translate(404.052734 0.015625)"/>
     <use xlink:href="#DejaVuSans-20" transform="translate(456.152344 0.015625)"/>
     <use xlink:href="#DejaVuSans-45" transform="translate(487.939453 0.015625)"/>
     <use xlink:href="#DejaVuSans-64" transform="translate(551.123047 0.015625)"/>
     <use xlink:href="#DejaVuSans-67" transform="translate(614.599609 0.015625)"/>
     <use xlink:href="#DejaVuSans-65" transform="translate(678.076172 0.015625)"/>
     <use xlink:href="#DejaVuSans-73" transform="translate(739.599609 0.015625)"/>
     <use xlink:href="#DejaVuSans-20" transform="translate(791.699219 0.015625)"/>
     <use xlink:href="#DejaVuSans-4d" transform="translate(823.486328 0.015625)"/>
     <use xlink:href="#DejaVuSans-61" transform="translate(909.765625 0.015625)"/>
     <use xlink:href="#DejaVuSans-74" transform="translate(971.044922 0.015625)"/>
     <use xlink:href="#DejaVuSans-72" transform="translate(1010.253906 0.015625)"/>
     <use xlink:href="#DejaVuSans-69" transform="translate(1051.367188 0.015625)"/>
     <use xlink:href="#DejaVuSans-78" transform="translate(1079.150391 0.015625)"/>
    </g>
   </g>
  </g>
 </g>
 <defs>
  <clipPath id="pfeff4775b3">
   <rect x="77.440313" y="24.6" width="357.12" height="266.112"/>
  </clipPath>
 </defs>
</svg>
