<?xml version="1.0" encoding="utf-8" standalone="no"?>
<!DOCTYPE svg PUBLIC "-//W3C//DTD SVG 1.1//EN"
  "http://www.w3.org/Graphics/SVG/1.1/DTD/svg11.dtd">
<svg xmlns:xlink="http://www.w3.org/1999/xlink" width="460.8pt" height="345.6pt" viewBox="0 0 460.8 345.6" xmlns="http://www.w3.org/2000/svg" version="1.1">
 <metadata>
  <rdf:RDF xmlns:dc="http://purl.org/dc/elements/1.1/" xmlns:cc="http://creativecommons.org/ns#" xmlns:rdf="http://www.w3.org/1999/02/22-rdf-syntax-ns#">
   <cc:Work>
    <dc:type rdf:resource="http://purl.org/dc/dcmitype/StillImage"/>
    <dc:date>2024-11-27T11:08:15.305317</dc:date>
    <dc:format>image/svg+xml</dc:format>
    <dc:creator>
     <cc:Agent>
      <dc:title>Matplotlib v3.9.2, https://matplotlib.org/</dc:title>
     </cc:Agent>
    </dc:creator>
   </cc:Work>
  </rdf:RDF>
 </metadata>
 <defs>
  <style type="text/css">*{stroke-linejoin: round; stroke-linecap: butt}</style>
 </defs>
 <g id="figure_1">
  <g id="patch_1">
   <path d="M 0 345.6 
L 460.8 345.6 
L 460.8 0 
L 0 0 
z
" style="fill: #ffffff"/>
  </g>
  <g id="axes_1">
   <g id="patch_2">
    <path d="M 235.66453 66.060709 
C 216.308439 59.964876 195.467086 60.453996 176.41827 67.451144 
C 157.369455 74.448292 141.167054 87.566351 130.359283 104.742192 
C 119.551511 121.918032 114.736308 142.201402 116.670981 162.402255 
C 118.605653 182.603109 127.183165 201.603834 141.054497 216.416112 
C 134.836953 195.081956 136.006369 172.260335 144.372014 151.673444 
C 152.737659 131.086554 167.818573 113.91798 187.155068 102.967908 
C 192.868726 94.303466 200.006707 86.66732 208.266593 80.382994 
C 216.526478 74.098669 225.789947 69.256186 235.66453 66.060709 
" clip-path="url(#pbd1c68ef0e)" style="fill: #ffa500; opacity: 0.7"/>
   </g>
   <g id="patch_3">
    <path d="M 235.66453 66.060709 
C 245.678615 69.214455 255.078065 74.062378 263.453461 80.393313 
C 271.828858 86.724248 279.056805 94.444921 284.82247 103.219037 
C 304.233671 114.343635 319.294905 131.747213 327.517739 152.554337 
C 335.740573 173.361461 336.645752 196.359416 330.083722 217.748459 
C 344.389334 203.002124 353.354809 183.882897 355.543439 163.454611 
C 357.732069 143.026326 353.020348 122.441762 342.163324 104.999572 
C 331.306301 87.557382 314.916643 74.241839 295.620773 67.186743 
C 276.324904 60.131647 255.211701 59.735122 235.66453 66.060709 
" clip-path="url(#pbd1c68ef0e)" style="fill: #0000ff; opacity: 0.7"/>
   </g>
   <g id="patch_4">
    <path d="M 235.66453 66.060709 
C 225.789947 69.256186 216.526478 74.098669 208.266593 80.382994 
C 200.006707 86.66732 192.868726 94.303466 187.155068 102.967908 
C 202.055235 94.530086 218.898654 90.115203 236.022026 90.159232 
C 253.145399 90.203261 269.965892 94.704702 284.82247 103.219037 
C 279.056805 94.444921 271.828858 86.724248 263.453461 80.393313 
C 255.078065 74.062378 245.678615 69.214455 235.66453 66.060709 
" clip-path="url(#pbd1c68ef0e)" style="fill: #b274b2; opacity: 0.7"/>
   </g>
   <g id="patch_5">
    <path d="M 141.054497 216.416112 
C 146.993707 236.795225 159.35454 254.723269 176.289734 267.520991 
C 193.224927 280.318713 213.846627 287.315171 235.073028 287.464783 
C 256.299429 287.614394 277.017702 280.909314 294.13161 268.351583 
C 311.245518 255.793852 323.857837 238.041828 330.083722 217.748459 
C 318.111012 230.090019 302.916686 238.833801 286.230404 242.984449 
C 269.544122 247.135096 252.024025 246.528899 235.66453 241.234863 
C 219.159945 246.432669 201.517493 246.861039 184.780095 242.47037 
C 168.042696 238.079701 152.882328 229.046271 141.054497 216.416112 
" clip-path="url(#pbd1c68ef0e)" style="fill: #ff0000; opacity: 0.7"/>
   </g>
   <g id="patch_6">
    <path d="M 141.054497 216.416112 
C 152.882328 229.046271 168.042696 238.079701 184.780095 242.47037 
C 201.517493 246.861039 219.159945 246.432669 235.66453 241.234863 
C 222.169624 236.867827 209.864794 229.440476 199.713385 219.534297 
C 189.561976 209.628118 181.836005 197.508557 177.140338 184.124455 
C 172.44467 170.740352 170.905132 156.450348 172.642253 142.373207 
C 174.379375 128.296067 179.346608 114.808999 187.155068 102.967908 
C 167.818573 113.91798 152.737659 131.086554 144.372014 151.673444 
C 136.006369 172.260335 134.836953 195.081956 141.054497 216.416112 
" clip-path="url(#pbd1c68ef0e)" style="fill: #ff7400; opacity: 0.7"/>
   </g>
   <g id="patch_7">
    <path d="M 284.82247 103.219037 
C 292.61888 115.083514 297.558697 128.595951 299.252588 142.69136 
C 300.946478 156.786768 299.34874 171.084845 294.5853 184.458679 
C 289.82186 197.832513 282.021238 209.921271 271.798244 219.77217 
C 261.575251 229.623069 249.205709 236.970326 235.66453 241.234863 
C 252.024025 246.528899 269.544122 247.135096 286.230404 242.984449 
C 302.916686 238.833801 318.111012 230.090019 330.083722 217.748459 
C 336.645752 196.359416 335.740573 173.361461 327.517739 152.554337 
C 319.294905 131.747213 304.233671 114.343635 284.82247 103.219037 
" clip-path="url(#pbd1c68ef0e)" style="fill: #b200b2; opacity: 0.7"/>
   </g>
   <g id="patch_8">
    <path d="M 187.155068 102.967908 
C 179.346608 114.808999 174.379375 128.296067 172.642253 142.373207 
C 170.905132 156.450348 172.44467 170.740352 177.140338 184.124455 
C 181.836005 197.508557 189.561976 209.628118 199.713385 219.534297 
C 209.864794 229.440476 222.169624 236.867827 235.66453 241.234863 
C 249.205709 236.970326 261.575251 229.623069 271.798244 219.77217 
C 282.021238 209.921271 289.82186 197.832513 294.5853 184.458679 
C 299.34874 171.084845 300.946478 156.786768 299.252588 142.69136 
C 297.558697 128.595951 292.61888 115.083514 284.82247 103.219037 
C 269.965892 94.704702 253.145399 90.203261 236.022026 90.159232 
C 218.898654 90.115203 202.055235 94.530086 187.155068 102.967908 
" clip-path="url(#pbd1c68ef0e)" style="fill: #cc4266; opacity: 0.7"/>
   </g>
   <g id="text_1">
    <!-- 0.1998 -->
    <g transform="translate(128.230819 117.497913) scale(0.1 -0.1)">
     <defs>
      <path id="DejaVuSans-30" d="M 2034 4250 
Q 1547 4250 1301 3770 
Q 1056 3291 1056 2328 
Q 1056 1369 1301 889 
Q 1547 409 2034 409 
Q 2525 409 2770 889 
Q 3016 1369 3016 2328 
Q 3016 3291 2770 3770 
Q 2525 4250 2034 4250 
z
M 2034 4750 
Q 2819 4750 3233 4129 
Q 3647 3509 3647 2328 
Q 3647 1150 3233 529 
Q 2819 -91 2034 -91 
Q 1250 -91 836 529 
Q 422 1150 422 2328 
Q 422 3509 836 4129 
Q 1250 4750 2034 4750 
z
" transform="scale(0.015625)"/>
      <path id="DejaVuSans-2e" d="M 684 794 
L 1344 794 
L 1344 0 
L 684 0 
L 684 794 
z
" transform="scale(0.015625)"/>
      <path id="DejaVuSans-31" d="M 794 531 
L 1825 531 
L 1825 4091 
L 703 3866 
L 703 4441 
L 1819 4666 
L 2450 4666 
L 2450 531 
L 3481 531 
L 3481 0 
L 794 0 
L 794 531 
z
" transform="scale(0.015625)"/>
      <path id="DejaVuSans-39" d="M 703 97 
L 703 672 
Q 941 559 1184 500 
Q 1428 441 1663 441 
Q 2288 441 2617 861 
Q 2947 1281 2994 2138 
Q 2813 1869 2534 1725 
Q 2256 1581 1919 1581 
Q 1219 1581 811 2004 
Q 403 2428 403 3163 
Q 403 3881 828 4315 
Q 1253 4750 1959 4750 
Q 2769 4750 3195 4129 
Q 3622 3509 3622 2328 
Q 3622 1225 3098 567 
Q 2575 -91 1691 -91 
Q 1453 -91 1209 -44 
Q 966 3 703 97 
z
M 1959 2075 
Q 2384 2075 2632 2365 
Q 2881 2656 2881 3163 
Q 2881 3666 2632 3958 
Q 2384 4250 1959 4250 
Q 1534 4250 1286 3958 
Q 1038 3666 1038 3163 
Q 1038 2656 1286 2365 
Q 1534 2075 1959 2075 
z
" transform="scale(0.015625)"/>
      <path id="DejaVuSans-38" d="M 2034 2216 
Q 1584 2216 1326 1975 
Q 1069 1734 1069 1313 
Q 1069 891 1326 650 
Q 1584 409 2034 409 
Q 2484 409 2743 651 
Q 3003 894 3003 1313 
Q 3003 1734 2745 1975 
Q 2488 2216 2034 2216 
z
M 1403 2484 
Q 997 2584 770 2862 
Q 544 3141 544 3541 
Q 544 4100 942 4425 
Q 1341 4750 2034 4750 
Q 2731 4750 3128 4425 
Q 3525 4100 3525 3541 
Q 3525 3141 3298 2862 
Q 3072 2584 2669 2484 
Q 3125 2378 3379 2068 
Q 3634 1759 3634 1313 
Q 3634 634 3220 271 
Q 2806 -91 2034 -91 
Q 1263 -91 848 271 
Q 434 634 434 1313 
Q 434 1759 690 2068 
Q 947 2378 1403 2484 
z
M 1172 3481 
Q 1172 3119 1398 2916 
Q 1625 2713 2034 2713 
Q 2441 2713 2670 2916 
Q 2900 3119 2900 3481 
Q 2900 3844 2670 4047 
Q 2441 4250 2034 4250 
Q 1625 4250 1398 4047 
Q 1172 3844 1172 3481 
z
" transform="scale(0.015625)"/>
     </defs>
     <use xlink:href="#DejaVuSans-30"/>
     <use xlink:href="#DejaVuSans-2e" x="63.623047"/>
     <use xlink:href="#DejaVuSans-31" x="95.410156"/>
     <use xlink:href="#DejaVuSans-39" x="159.033203"/>
     <use xlink:href="#DejaVuSans-39" x="222.65625"/>
     <use xlink:href="#DejaVuSans-38" x="286.279297"/>
    </g>
   </g>
   <g id="text_2">
    <!-- 0.208 -->
    <g transform="translate(312.142746 117.8452) scale(0.1 -0.1)">
     <defs>
      <path id="DejaVuSans-32" d="M 1228 531 
L 3431 531 
L 3431 0 
L 469 0 
L 469 531 
Q 828 903 1448 1529 
Q 2069 2156 2228 2338 
Q 2531 2678 2651 2914 
Q 2772 3150 2772 3378 
Q 2772 3750 2511 3984 
Q 2250 4219 1831 4219 
Q 1534 4219 1204 4116 
Q 875 4013 500 3803 
L 500 4441 
Q 881 4594 1212 4672 
Q 1544 4750 1819 4750 
Q 2544 4750 2975 4387 
Q 3406 4025 3406 3419 
Q 3406 3131 3298 2873 
Q 3191 2616 2906 2266 
Q 2828 2175 2409 1742 
Q 1991 1309 1228 531 
z
" transform="scale(0.015625)"/>
     </defs>
     <use xlink:href="#DejaVuSans-30"/>
     <use xlink:href="#DejaVuSans-2e" x="63.623047"/>
     <use xlink:href="#DejaVuSans-32" x="95.410156"/>
     <use xlink:href="#DejaVuSans-30" x="159.033203"/>
     <use xlink:href="#DejaVuSans-38" x="222.65625"/>
    </g>
   </g>
   <g id="text_3">
    <!-- -0.1998 -->
    <g transform="translate(216.740189 87.373129) scale(0.1 -0.1)">
     <defs>
      <path id="DejaVuSans-2d" d="M 313 2009 
L 1997 2009 
L 1997 1497 
L 313 1497 
L 313 2009 
z
" transform="scale(0.015625)"/>
     </defs>
     <use xlink:href="#DejaVuSans-2d"/>
     <use xlink:href="#DejaVuSans-30" x="36.083984"/>
     <use xlink:href="#DejaVuSans-2e" x="99.707031"/>
     <use xlink:href="#DejaVuSans-31" x="131.494141"/>
     <use xlink:href="#DejaVuSans-39" x="195.117188"/>
     <use xlink:href="#DejaVuSans-39" x="258.740234"/>
     <use xlink:href="#DejaVuSans-38" x="322.363281"/>
    </g>
   </g>
   <g id="text_4">
    <!-- 0.2326 -->
    <g transform="translate(217.676147 269.363426) scale(0.1 -0.1)">
     <defs>
      <path id="DejaVuSans-33" d="M 2597 2516 
Q 3050 2419 3304 2112 
Q 3559 1806 3559 1356 
Q 3559 666 3084 287 
Q 2609 -91 1734 -91 
Q 1441 -91 1130 -33 
Q 819 25 488 141 
L 488 750 
Q 750 597 1062 519 
Q 1375 441 1716 441 
Q 2309 441 2620 675 
Q 2931 909 2931 1356 
Q 2931 1769 2642 2001 
Q 2353 2234 1838 2234 
L 1294 2234 
L 1294 2753 
L 1863 2753 
Q 2328 2753 2575 2939 
Q 2822 3125 2822 3475 
Q 2822 3834 2567 4026 
Q 2313 4219 1838 4219 
Q 1578 4219 1281 4162 
Q 984 4106 628 3988 
L 628 4550 
Q 988 4650 1302 4700 
Q 1616 4750 1894 4750 
Q 2613 4750 3031 4423 
Q 3450 4097 3450 3541 
Q 3450 3153 3228 2886 
Q 3006 2619 2597 2516 
z
" transform="scale(0.015625)"/>
      <path id="DejaVuSans-36" d="M 2113 2584 
Q 1688 2584 1439 2293 
Q 1191 2003 1191 1497 
Q 1191 994 1439 701 
Q 1688 409 2113 409 
Q 2538 409 2786 701 
Q 3034 994 3034 1497 
Q 3034 2003 2786 2293 
Q 2538 2584 2113 2584 
z
M 3366 4563 
L 3366 3988 
Q 3128 4100 2886 4159 
Q 2644 4219 2406 4219 
Q 1781 4219 1451 3797 
Q 1122 3375 1075 2522 
Q 1259 2794 1537 2939 
Q 1816 3084 2150 3084 
Q 2853 3084 3261 2657 
Q 3669 2231 3669 1497 
Q 3669 778 3244 343 
Q 2819 -91 2113 -91 
Q 1303 -91 875 529 
Q 447 1150 447 2328 
Q 447 3434 972 4092 
Q 1497 4750 2381 4750 
Q 2619 4750 2861 4703 
Q 3103 4656 3366 4563 
z
" transform="scale(0.015625)"/>
     </defs>
     <use xlink:href="#DejaVuSans-30"/>
     <use xlink:href="#DejaVuSans-2e" x="63.623047"/>
     <use xlink:href="#DejaVuSans-32" x="95.410156"/>
     <use xlink:href="#DejaVuSans-33" x="159.033203"/>
     <use xlink:href="#DejaVuSans-32" x="222.65625"/>
     <use xlink:href="#DejaVuSans-36" x="286.279297"/>
    </g>
   </g>
   <g id="text_5">
    <!-- -0.4179 -->
    <g transform="translate(149.638203 192.015748) scale(0.1 -0.1)">
     <defs>
      <path id="DejaVuSans-34" d="M 2419 4116 
L 825 1625 
L 2419 1625 
L 2419 4116 
z
M 2253 4666 
L 3047 4666 
L 3047 1625 
L 3713 1625 
L 3713 1100 
L 3047 1100 
L 3047 0 
L 2419 0 
L 2419 1100 
L 313 1100 
L 313 1709 
L 2253 4666 
z
" transform="scale(0.015625)"/>
      <path id="DejaVuSans-37" d="M 525 4666 
L 3525 4666 
L 3525 4397 
L 1831 0 
L 1172 0 
L 2766 4134 
L 525 4134 
L 525 4666 
z
" transform="scale(0.015625)"/>
     </defs>
     <use xlink:href="#DejaVuSans-2d"/>
     <use xlink:href="#DejaVuSans-30" x="36.083984"/>
     <use xlink:href="#DejaVuSans-2e" x="99.707031"/>
     <use xlink:href="#DejaVuSans-34" x="131.494141"/>
     <use xlink:href="#DejaVuSans-31" x="195.117188"/>
     <use xlink:href="#DejaVuSans-37" x="258.740234"/>
     <use xlink:href="#DejaVuSans-39" x="322.363281"/>
    </g>
   </g>
   <g id="text_6">
    <!-- -0.4179 -->
    <g transform="translate(283.430513 192.36151) scale(0.1 -0.1)">
     <use xlink:href="#DejaVuSans-2d"/>
     <use xlink:href="#DejaVuSans-30" x="36.083984"/>
     <use xlink:href="#DejaVuSans-2e" x="99.707031"/>
     <use xlink:href="#DejaVuSans-34" x="131.494141"/>
     <use xlink:href="#DejaVuSans-31" x="195.117188"/>
     <use xlink:href="#DejaVuSans-37" x="258.740234"/>
     <use xlink:href="#DejaVuSans-39" x="322.363281"/>
    </g>
   </g>
   <g id="text_7">
    <!-- 0.8096 -->
    <g transform="translate(218.480204 166.411963) scale(0.1 -0.1)">
     <use xlink:href="#DejaVuSans-30"/>
     <use xlink:href="#DejaVuSans-2e" x="63.623047"/>
     <use xlink:href="#DejaVuSans-38" x="95.410156"/>
     <use xlink:href="#DejaVuSans-30" x="159.033203"/>
     <use xlink:href="#DejaVuSans-39" x="222.65625"/>
     <use xlink:href="#DejaVuSans-36" x="286.279297"/>
    </g>
   </g>
   <g id="text_8">
    <!-- Topography -->
    <g transform="translate(92.343557 46.220241) scale(0.12 -0.12)">
     <defs>
      <path id="DejaVuSans-54" d="M -19 4666 
L 3928 4666 
L 3928 4134 
L 2272 4134 
L 2272 0 
L 1638 0 
L 1638 4134 
L -19 4134 
L -19 4666 
z
" transform="scale(0.015625)"/>
      <path id="DejaVuSans-6f" d="M 1959 3097 
Q 1497 3097 1228 2736 
Q 959 2375 959 1747 
Q 959 1119 1226 758 
Q 1494 397 1959 397 
Q 2419 397 2687 759 
Q 2956 1122 2956 1747 
Q 2956 2369 2687 2733 
Q 2419 3097 1959 3097 
z
M 1959 3584 
Q 2709 3584 3137 3096 
Q 3566 2609 3566 1747 
Q 3566 888 3137 398 
Q 2709 -91 1959 -91 
Q 1206 -91 779 398 
Q 353 888 353 1747 
Q 353 2609 779 3096 
Q 1206 3584 1959 3584 
z
" transform="scale(0.015625)"/>
      <path id="DejaVuSans-70" d="M 1159 525 
L 1159 -1331 
L 581 -1331 
L 581 3500 
L 1159 3500 
L 1159 2969 
Q 1341 3281 1617 3432 
Q 1894 3584 2278 3584 
Q 2916 3584 3314 3078 
Q 3713 2572 3713 1747 
Q 3713 922 3314 415 
Q 2916 -91 2278 -91 
Q 1894 -91 1617 61 
Q 1341 213 1159 525 
z
M 3116 1747 
Q 3116 2381 2855 2742 
Q 2594 3103 2138 3103 
Q 1681 3103 1420 2742 
Q 1159 2381 1159 1747 
Q 1159 1113 1420 752 
Q 1681 391 2138 391 
Q 2594 391 2855 752 
Q 3116 1113 3116 1747 
z
" transform="scale(0.015625)"/>
      <path id="DejaVuSans-67" d="M 2906 1791 
Q 2906 2416 2648 2759 
Q 2391 3103 1925 3103 
Q 1463 3103 1205 2759 
Q 947 2416 947 1791 
Q 947 1169 1205 825 
Q 1463 481 1925 481 
Q 2391 481 2648 825 
Q 2906 1169 2906 1791 
z
M 3481 434 
Q 3481 -459 3084 -895 
Q 2688 -1331 1869 -1331 
Q 1566 -1331 1297 -1286 
Q 1028 -1241 775 -1147 
L 775 -588 
Q 1028 -725 1275 -790 
Q 1522 -856 1778 -856 
Q 2344 -856 2625 -561 
Q 2906 -266 2906 331 
L 2906 616 
Q 2728 306 2450 153 
Q 2172 0 1784 0 
Q 1141 0 747 490 
Q 353 981 353 1791 
Q 353 2603 747 3093 
Q 1141 3584 1784 3584 
Q 2172 3584 2450 3431 
Q 2728 3278 2906 2969 
L 2906 3500 
L 3481 3500 
L 3481 434 
z
" transform="scale(0.015625)"/>
      <path id="DejaVuSans-72" d="M 2631 2963 
Q 2534 3019 2420 3045 
Q 2306 3072 2169 3072 
Q 1681 3072 1420 2755 
Q 1159 2438 1159 1844 
L 1159 0 
L 581 0 
L 581 3500 
L 1159 3500 
L 1159 2956 
Q 1341 3275 1631 3429 
Q 1922 3584 2338 3584 
Q 2397 3584 2469 3576 
Q 2541 3569 2628 3553 
L 2631 2963 
z
" transform="scale(0.015625)"/>
      <path id="DejaVuSans-61" d="M 2194 1759 
Q 1497 1759 1228 1600 
Q 959 1441 959 1056 
Q 959 750 1161 570 
Q 1363 391 1709 391 
Q 2188 391 2477 730 
Q 2766 1069 2766 1631 
L 2766 1759 
L 2194 1759 
z
M 3341 1997 
L 3341 0 
L 2766 0 
L 2766 531 
Q 2569 213 2275 61 
Q 1981 -91 1556 -91 
Q 1019 -91 701 211 
Q 384 513 384 1019 
Q 384 1609 779 1909 
Q 1175 2209 1959 2209 
L 2766 2209 
L 2766 2266 
Q 2766 2663 2505 2880 
Q 2244 3097 1772 3097 
Q 1472 3097 1187 3025 
Q 903 2953 641 2809 
L 641 3341 
Q 956 3463 1253 3523 
Q 1550 3584 1831 3584 
Q 2591 3584 2966 3190 
Q 3341 2797 3341 1997 
z
" transform="scale(0.015625)"/>
      <path id="DejaVuSans-68" d="M 3513 2113 
L 3513 0 
L 2938 0 
L 2938 2094 
Q 2938 2591 2744 2837 
Q 2550 3084 2163 3084 
Q 1697 3084 1428 2787 
Q 1159 2491 1159 1978 
L 1159 0 
L 581 0 
L 581 4863 
L 1159 4863 
L 1159 2956 
Q 1366 3272 1645 3428 
Q 1925 3584 2291 3584 
Q 2894 3584 3203 3211 
Q 3513 2838 3513 2113 
z
" transform="scale(0.015625)"/>
      <path id="DejaVuSans-79" d="M 2059 -325 
Q 1816 -950 1584 -1140 
Q 1353 -1331 966 -1331 
L 506 -1331 
L 506 -850 
L 844 -850 
Q 1081 -850 1212 -737 
Q 1344 -625 1503 -206 
L 1606 56 
L 191 3500 
L 800 3500 
L 1894 763 
L 2988 3500 
L 3597 3500 
L 2059 -325 
z
" transform="scale(0.015625)"/>
     </defs>
     <use xlink:href="#DejaVuSans-54"/>
     <use xlink:href="#DejaVuSans-6f" x="44.083984"/>
     <use xlink:href="#DejaVuSans-70" x="105.265625"/>
     <use xlink:href="#DejaVuSans-6f" x="168.742188"/>
     <use xlink:href="#DejaVuSans-67" x="229.923828"/>
     <use xlink:href="#DejaVuSans-72" x="293.400391"/>
     <use xlink:href="#DejaVuSans-61" x="334.513672"/>
     <use xlink:href="#DejaVuSans-70" x="395.792969"/>
     <use xlink:href="#DejaVuSans-68" x="459.269531"/>
     <use xlink:href="#DejaVuSans-79" x="522.648438"/>
    </g>
    <!-- (R$^{2}_{a}$ = 0.3917) -->
    <g transform="translate(78.886682 61.819866) scale(0.12 -0.12)">
     <defs>
      <path id="DejaVuSans-28" d="M 1984 4856 
Q 1566 4138 1362 3434 
Q 1159 2731 1159 2009 
Q 1159 1288 1364 580 
Q 1569 -128 1984 -844 
L 1484 -844 
Q 1016 -109 783 600 
Q 550 1309 550 2009 
Q 550 2706 781 3412 
Q 1013 4119 1484 4856 
L 1984 4856 
z
" transform="scale(0.015625)"/>
      <path id="DejaVuSans-52" d="M 2841 2188 
Q 3044 2119 3236 1894 
Q 3428 1669 3622 1275 
L 4263 0 
L 3584 0 
L 2988 1197 
Q 2756 1666 2539 1819 
Q 2322 1972 1947 1972 
L 1259 1972 
L 1259 0 
L 628 0 
L 628 4666 
L 2053 4666 
Q 2853 4666 3247 4331 
Q 3641 3997 3641 3322 
Q 3641 2881 3436 2590 
Q 3231 2300 2841 2188 
z
M 1259 4147 
L 1259 2491 
L 2053 2491 
Q 2509 2491 2742 2702 
Q 2975 2913 2975 3322 
Q 2975 3731 2742 3939 
Q 2509 4147 2053 4147 
L 1259 4147 
z
" transform="scale(0.015625)"/>
      <path id="DejaVuSans-Oblique-61" d="M 3438 1997 
L 3047 0 
L 2472 0 
L 2578 531 
Q 2325 219 2001 64 
Q 1678 -91 1281 -91 
Q 834 -91 548 182 
Q 263 456 263 884 
Q 263 1497 752 1853 
Q 1241 2209 2100 2209 
L 2900 2209 
L 2931 2363 
Q 2938 2388 2941 2417 
Q 2944 2447 2944 2509 
Q 2944 2788 2717 2942 
Q 2491 3097 2081 3097 
Q 1800 3097 1504 3025 
Q 1209 2953 897 2809 
L 997 3341 
Q 1322 3463 1633 3523 
Q 1944 3584 2234 3584 
Q 2853 3584 3176 3315 
Q 3500 3047 3500 2534 
Q 3500 2431 3484 2292 
Q 3469 2153 3438 1997 
z
M 2816 1759 
L 2241 1759 
Q 1534 1759 1195 1570 
Q 856 1381 856 984 
Q 856 709 1029 553 
Q 1203 397 1509 397 
Q 1978 397 2328 733 
Q 2678 1069 2791 1631 
L 2816 1759 
z
" transform="scale(0.015625)"/>
      <path id="DejaVuSans-20" transform="scale(0.015625)"/>
      <path id="DejaVuSans-3d" d="M 678 2906 
L 4684 2906 
L 4684 2381 
L 678 2381 
L 678 2906 
z
M 678 1631 
L 4684 1631 
L 4684 1100 
L 678 1100 
L 678 1631 
z
" transform="scale(0.015625)"/>
      <path id="DejaVuSans-29" d="M 513 4856 
L 1013 4856 
Q 1481 4119 1714 3412 
Q 1947 2706 1947 2009 
Q 1947 1309 1714 600 
Q 1481 -109 1013 -844 
L 513 -844 
Q 928 -128 1133 580 
Q 1338 1288 1338 2009 
Q 1338 2731 1133 3434 
Q 928 4138 513 4856 
z
" transform="scale(0.015625)"/>
     </defs>
     <use xlink:href="#DejaVuSans-28" transform="translate(0 0.765625)"/>
     <use xlink:href="#DejaVuSans-52" transform="translate(39.013672 0.765625)"/>
     <use xlink:href="#DejaVuSans-32" transform="translate(109.453125 39.046875) scale(0.7)"/>
     <use xlink:href="#DejaVuSans-Oblique-61" transform="translate(109.453125 -26.578125) scale(0.7)"/>
     <use xlink:href="#DejaVuSans-20" transform="translate(156.723633 0.765625)"/>
     <use xlink:href="#DejaVuSans-3d" transform="translate(188.510742 0.765625)"/>
     <use xlink:href="#DejaVuSans-20" transform="translate(272.299805 0.765625)"/>
     <use xlink:href="#DejaVuSans-30" transform="translate(304.086914 0.765625)"/>
     <use xlink:href="#DejaVuSans-2e" transform="translate(367.709961 0.765625)"/>
     <use xlink:href="#DejaVuSans-33" transform="translate(399.49707 0.765625)"/>
     <use xlink:href="#DejaVuSans-39" transform="translate(463.120117 0.765625)"/>
     <use xlink:href="#DejaVuSans-31" transform="translate(526.743164 0.765625)"/>
     <use xlink:href="#DejaVuSans-37" transform="translate(590.366211 0.765625)"/>
     <use xlink:href="#DejaVuSans-29" transform="translate(653.989258 0.765625)"/>
    </g>
   </g>
   <g id="text_9">
    <!-- Chemistry -->
    <g transform="translate(310.037768 45.989142) scale(0.12 -0.12)">
     <defs>
      <path id="DejaVuSans-43" d="M 4122 4306 
L 4122 3641 
Q 3803 3938 3442 4084 
Q 3081 4231 2675 4231 
Q 1875 4231 1450 3742 
Q 1025 3253 1025 2328 
Q 1025 1406 1450 917 
Q 1875 428 2675 428 
Q 3081 428 3442 575 
Q 3803 722 4122 1019 
L 4122 359 
Q 3791 134 3420 21 
Q 3050 -91 2638 -91 
Q 1578 -91 968 557 
Q 359 1206 359 2328 
Q 359 3453 968 4101 
Q 1578 4750 2638 4750 
Q 3056 4750 3426 4639 
Q 3797 4528 4122 4306 
z
" transform="scale(0.015625)"/>
      <path id="DejaVuSans-65" d="M 3597 1894 
L 3597 1613 
L 953 1613 
Q 991 1019 1311 708 
Q 1631 397 2203 397 
Q 2534 397 2845 478 
Q 3156 559 3463 722 
L 3463 178 
Q 3153 47 2828 -22 
Q 2503 -91 2169 -91 
Q 1331 -91 842 396 
Q 353 884 353 1716 
Q 353 2575 817 3079 
Q 1281 3584 2069 3584 
Q 2775 3584 3186 3129 
Q 3597 2675 3597 1894 
z
M 3022 2063 
Q 3016 2534 2758 2815 
Q 2500 3097 2075 3097 
Q 1594 3097 1305 2825 
Q 1016 2553 972 2059 
L 3022 2063 
z
" transform="scale(0.015625)"/>
      <path id="DejaVuSans-6d" d="M 3328 2828 
Q 3544 3216 3844 3400 
Q 4144 3584 4550 3584 
Q 5097 3584 5394 3201 
Q 5691 2819 5691 2113 
L 5691 0 
L 5113 0 
L 5113 2094 
Q 5113 2597 4934 2840 
Q 4756 3084 4391 3084 
Q 3944 3084 3684 2787 
Q 3425 2491 3425 1978 
L 3425 0 
L 2847 0 
L 2847 2094 
Q 2847 2600 2669 2842 
Q 2491 3084 2119 3084 
Q 1678 3084 1418 2786 
Q 1159 2488 1159 1978 
L 1159 0 
L 581 0 
L 581 3500 
L 1159 3500 
L 1159 2956 
Q 1356 3278 1631 3431 
Q 1906 3584 2284 3584 
Q 2666 3584 2933 3390 
Q 3200 3197 3328 2828 
z
" transform="scale(0.015625)"/>
      <path id="DejaVuSans-69" d="M 603 3500 
L 1178 3500 
L 1178 0 
L 603 0 
L 603 3500 
z
M 603 4863 
L 1178 4863 
L 1178 4134 
L 603 4134 
L 603 4863 
z
" transform="scale(0.015625)"/>
      <path id="DejaVuSans-73" d="M 2834 3397 
L 2834 2853 
Q 2591 2978 2328 3040 
Q 2066 3103 1784 3103 
Q 1356 3103 1142 2972 
Q 928 2841 928 2578 
Q 928 2378 1081 2264 
Q 1234 2150 1697 2047 
L 1894 2003 
Q 2506 1872 2764 1633 
Q 3022 1394 3022 966 
Q 3022 478 2636 193 
Q 2250 -91 1575 -91 
Q 1294 -91 989 -36 
Q 684 19 347 128 
L 347 722 
Q 666 556 975 473 
Q 1284 391 1588 391 
Q 1994 391 2212 530 
Q 2431 669 2431 922 
Q 2431 1156 2273 1281 
Q 2116 1406 1581 1522 
L 1381 1569 
Q 847 1681 609 1914 
Q 372 2147 372 2553 
Q 372 3047 722 3315 
Q 1072 3584 1716 3584 
Q 2034 3584 2315 3537 
Q 2597 3491 2834 3397 
z
" transform="scale(0.015625)"/>
      <path id="DejaVuSans-74" d="M 1172 4494 
L 1172 3500 
L 2356 3500 
L 2356 3053 
L 1172 3053 
L 1172 1153 
Q 1172 725 1289 603 
Q 1406 481 1766 481 
L 2356 481 
L 2356 0 
L 1766 0 
Q 1100 0 847 248 
Q 594 497 594 1153 
L 594 3053 
L 172 3053 
L 172 3500 
L 594 3500 
L 594 4494 
L 1172 4494 
z
" transform="scale(0.015625)"/>
     </defs>
     <use xlink:href="#DejaVuSans-43"/>
     <use xlink:href="#DejaVuSans-68" x="69.824219"/>
     <use xlink:href="#DejaVuSans-65" x="133.203125"/>
     <use xlink:href="#DejaVuSans-6d" x="194.726562"/>
     <use xlink:href="#DejaVuSans-69" x="292.138672"/>
     <use xlink:href="#DejaVuSans-73" x="319.921875"/>
     <use xlink:href="#DejaVuSans-74" x="372.021484"/>
     <use xlink:href="#DejaVuSans-72" x="411.230469"/>
     <use xlink:href="#DejaVuSans-79" x="452.34375"/>
    </g>
    <!-- (R$^{2}_{a}$ = 0.3998) -->
    <g transform="translate(310.037768 61.588767) scale(0.12 -0.12)">
     <use xlink:href="#DejaVuSans-28" transform="translate(0 0.765625)"/>
     <use xlink:href="#DejaVuSans-52" transform="translate(39.013672 0.765625)"/>
     <use xlink:href="#DejaVuSans-32" transform="translate(109.453125 39.046875) scale(0.7)"/>
     <use xlink:href="#DejaVuSans-Oblique-61" transform="translate(109.453125 -26.578125) scale(0.7)"/>
     <use xlink:href="#DejaVuSans-20" transform="translate(156.723633 0.765625)"/>
     <use xlink:href="#DejaVuSans-3d" transform="translate(188.510742 0.765625)"/>
     <use xlink:href="#DejaVuSans-20" transform="translate(272.299805 0.765625)"/>
     <use xlink:href="#DejaVuSans-30" transform="translate(304.086914 0.765625)"/>
     <use xlink:href="#DejaVuSans-2e" transform="translate(367.709961 0.765625)"/>
     <use xlink:href="#DejaVuSans-33" transform="translate(399.49707 0.765625)"/>
     <use xlink:href="#DejaVuSans-39" transform="translate(463.120117 0.765625)"/>
     <use xlink:href="#DejaVuSans-39" transform="translate(526.743164 0.765625)"/>
     <use xlink:href="#DejaVuSans-38" transform="translate(590.366211 0.765625)"/>
     <use xlink:href="#DejaVuSans-29" transform="translate(653.989258 0.765625)"/>
    </g>
   </g>
   <g id="text_10">
    <!-- Geography -->
    <g transform="translate(202.640861 306.450775) scale(0.12 -0.12)">
     <defs>
      <path id="DejaVuSans-47" d="M 3809 666 
L 3809 1919 
L 2778 1919 
L 2778 2438 
L 4434 2438 
L 4434 434 
Q 4069 175 3628 42 
Q 3188 -91 2688 -91 
Q 1594 -91 976 548 
Q 359 1188 359 2328 
Q 359 3472 976 4111 
Q 1594 4750 2688 4750 
Q 3144 4750 3555 4637 
Q 3966 4525 4313 4306 
L 4313 3634 
Q 3963 3931 3569 4081 
Q 3175 4231 2741 4231 
Q 1884 4231 1454 3753 
Q 1025 3275 1025 2328 
Q 1025 1384 1454 906 
Q 1884 428 2741 428 
Q 3075 428 3337 486 
Q 3600 544 3809 666 
z
" transform="scale(0.015625)"/>
     </defs>
     <use xlink:href="#DejaVuSans-47"/>
     <use xlink:href="#DejaVuSans-65" x="77.490234"/>
     <use xlink:href="#DejaVuSans-6f" x="139.013672"/>
     <use xlink:href="#DejaVuSans-67" x="200.195312"/>
     <use xlink:href="#DejaVuSans-72" x="263.671875"/>
     <use xlink:href="#DejaVuSans-61" x="304.785156"/>
     <use xlink:href="#DejaVuSans-70" x="366.064453"/>
     <use xlink:href="#DejaVuSans-68" x="429.541016"/>
     <use xlink:href="#DejaVuSans-79" x="492.919922"/>
    </g>
    <!-- (R$^{2}_{a}$ = 0.4204) -->
    <g transform="translate(194.128361 322.0504) scale(0.12 -0.12)">
     <use xlink:href="#DejaVuSans-28" transform="translate(0 0.765625)"/>
     <use xlink:href="#DejaVuSans-52" transform="translate(39.013672 0.765625)"/>
     <use xlink:href="#DejaVuSans-32" transform="translate(109.453125 39.046875) scale(0.7)"/>
     <use xlink:href="#DejaVuSans-Oblique-61" transform="translate(109.453125 -26.578125) scale(0.7)"/>
     <use xlink:href="#DejaVuSans-20" transform="translate(156.723633 0.765625)"/>
     <use xlink:href="#DejaVuSans-3d" transform="translate(188.510742 0.765625)"/>
     <use xlink:href="#DejaVuSans-20" transform="translate(272.299805 0.765625)"/>
     <use xlink:href="#DejaVuSans-30" transform="translate(304.086914 0.765625)"/>
     <use xlink:href="#DejaVuSans-2e" transform="translate(367.709961 0.765625)"/>
     <use xlink:href="#DejaVuSans-34" transform="translate(399.49707 0.765625)"/>
     <use xlink:href="#DejaVuSans-32" transform="translate(463.120117 0.765625)"/>
     <use xlink:href="#DejaVuSans-30" transform="translate(526.743164 0.765625)"/>
     <use xlink:href="#DejaVuSans-34" transform="translate(590.366211 0.765625)"/>
     <use xlink:href="#DejaVuSans-29" transform="translate(653.989258 0.765625)"/>
    </g>
   </g>
   <g id="text_11">
    <!-- residuals = 0.7875 -->
    <g transform="translate(76.019188 307.584) scale(0.1 -0.1)">
     <defs>
      <path id="DejaVuSans-64" d="M 2906 2969 
L 2906 4863 
L 3481 4863 
L 3481 0 
L 2906 0 
L 2906 525 
Q 2725 213 2448 61 
Q 2172 -91 1784 -91 
Q 1150 -91 751 415 
Q 353 922 353 1747 
Q 353 2572 751 3078 
Q 1150 3584 1784 3584 
Q 2172 3584 2448 3432 
Q 2725 3281 2906 2969 
z
M 947 1747 
Q 947 1113 1208 752 
Q 1469 391 1925 391 
Q 2381 391 2643 752 
Q 2906 1113 2906 1747 
Q 2906 2381 2643 2742 
Q 2381 3103 1925 3103 
Q 1469 3103 1208 2742 
Q 947 2381 947 1747 
z
" transform="scale(0.015625)"/>
      <path id="DejaVuSans-75" d="M 544 1381 
L 544 3500 
L 1119 3500 
L 1119 1403 
Q 1119 906 1312 657 
Q 1506 409 1894 409 
Q 2359 409 2629 706 
Q 2900 1003 2900 1516 
L 2900 3500 
L 3475 3500 
L 3475 0 
L 2900 0 
L 2900 538 
Q 2691 219 2414 64 
Q 2138 -91 1772 -91 
Q 1169 -91 856 284 
Q 544 659 544 1381 
z
M 1991 3584 
L 1991 3584 
z
" transform="scale(0.015625)"/>
      <path id="DejaVuSans-6c" d="M 603 4863 
L 1178 4863 
L 1178 0 
L 603 0 
L 603 4863 
z
" transform="scale(0.015625)"/>
      <path id="DejaVuSans-35" d="M 691 4666 
L 3169 4666 
L 3169 4134 
L 1269 4134 
L 1269 2991 
Q 1406 3038 1543 3061 
Q 1681 3084 1819 3084 
Q 2600 3084 3056 2656 
Q 3513 2228 3513 1497 
Q 3513 744 3044 326 
Q 2575 -91 1722 -91 
Q 1428 -91 1123 -41 
Q 819 9 494 109 
L 494 744 
Q 775 591 1075 516 
Q 1375 441 1709 441 
Q 2250 441 2565 725 
Q 2881 1009 2881 1497 
Q 2881 1984 2565 2268 
Q 2250 2553 1709 2553 
Q 1456 2553 1204 2497 
Q 953 2441 691 2322 
L 691 4666 
z
" transform="scale(0.015625)"/>
     </defs>
     <use xlink:href="#DejaVuSans-72"/>
     <use xlink:href="#DejaVuSans-65" x="38.863281"/>
     <use xlink:href="#DejaVuSans-73" x="100.386719"/>
     <use xlink:href="#DejaVuSans-69" x="152.486328"/>
     <use xlink:href="#DejaVuSans-64" x="180.269531"/>
     <use xlink:href="#DejaVuSans-75" x="243.746094"/>
     <use xlink:href="#DejaVuSans-61" x="307.125"/>
     <use xlink:href="#DejaVuSans-6c" x="368.404297"/>
     <use xlink:href="#DejaVuSans-73" x="396.1875"/>
     <use xlink:href="#DejaVuSans-20" x="448.287109"/>
     <use xlink:href="#DejaVuSans-3d" x="480.074219"/>
     <use xlink:href="#DejaVuSans-20" x="563.863281"/>
     <use xlink:href="#DejaVuSans-30" x="595.650391"/>
     <use xlink:href="#DejaVuSans-2e" x="659.273438"/>
     <use xlink:href="#DejaVuSans-37" x="691.060547"/>
     <use xlink:href="#DejaVuSans-38" x="754.683594"/>
     <use xlink:href="#DejaVuSans-37" x="818.306641"/>
     <use xlink:href="#DejaVuSans-35" x="881.929688"/>
    </g>
   </g>
   <g id="text_12">
    <!-- Variation Partitioning Venn Diagram -->
    <g transform="translate(102.011953 11.29685) scale(0.15 -0.15)">
     <defs>
      <path id="DejaVuSans-56" d="M 1831 0 
L 50 4666 
L 709 4666 
L 2188 738 
L 3669 4666 
L 4325 4666 
L 2547 0 
L 1831 0 
z
" transform="scale(0.015625)"/>
      <path id="DejaVuSans-6e" d="M 3513 2113 
L 3513 0 
L 2938 0 
L 2938 2094 
Q 2938 2591 2744 2837 
Q 2550 3084 2163 3084 
Q 1697 3084 1428 2787 
Q 1159 2491 1159 1978 
L 1159 0 
L 581 0 
L 581 3500 
L 1159 3500 
L 1159 2956 
Q 1366 3272 1645 3428 
Q 1925 3584 2291 3584 
Q 2894 3584 3203 3211 
Q 3513 2838 3513 2113 
z
" transform="scale(0.015625)"/>
      <path id="DejaVuSans-50" d="M 1259 4147 
L 1259 2394 
L 2053 2394 
Q 2494 2394 2734 2622 
Q 2975 2850 2975 3272 
Q 2975 3691 2734 3919 
Q 2494 4147 2053 4147 
L 1259 4147 
z
M 628 4666 
L 2053 4666 
Q 2838 4666 3239 4311 
Q 3641 3956 3641 3272 
Q 3641 2581 3239 2228 
Q 2838 1875 2053 1875 
L 1259 1875 
L 1259 0 
L 628 0 
L 628 4666 
z
" transform="scale(0.015625)"/>
      <path id="DejaVuSans-44" d="M 1259 4147 
L 1259 519 
L 2022 519 
Q 2988 519 3436 956 
Q 3884 1394 3884 2338 
Q 3884 3275 3436 3711 
Q 2988 4147 2022 4147 
L 1259 4147 
z
M 628 4666 
L 1925 4666 
Q 3281 4666 3915 4102 
Q 4550 3538 4550 2338 
Q 4550 1131 3912 565 
Q 3275 0 1925 0 
L 628 0 
L 628 4666 
z
" transform="scale(0.015625)"/>
     </defs>
     <use xlink:href="#DejaVuSans-56"/>
     <use xlink:href="#DejaVuSans-61" x="60.658203"/>
     <use xlink:href="#DejaVuSans-72" x="121.9375"/>
     <use xlink:href="#DejaVuSans-69" x="163.050781"/>
     <use xlink:href="#DejaVuSans-61" x="190.833984"/>
     <use xlink:href="#DejaVuSans-74" x="252.113281"/>
     <use xlink:href="#DejaVuSans-69" x="291.322266"/>
     <use xlink:href="#DejaVuSans-6f" x="319.105469"/>
     <use xlink:href="#DejaVuSans-6e" x="380.287109"/>
     <use xlink:href="#DejaVuSans-20" x="443.666016"/>
     <use xlink:href="#DejaVuSans-50" x="475.453125"/>
     <use xlink:href="#DejaVuSans-61" x="531.255859"/>
     <use xlink:href="#DejaVuSans-72" x="592.535156"/>
     <use xlink:href="#DejaVuSans-74" x="633.648438"/>
     <use xlink:href="#DejaVuSans-69" x="672.857422"/>
     <use xlink:href="#DejaVuSans-74" x="700.640625"/>
     <use xlink:href="#DejaVuSans-69" x="739.849609"/>
     <use xlink:href="#DejaVuSans-6f" x="767.632812"/>
     <use xlink:href="#DejaVuSans-6e" x="828.814453"/>
     <use xlink:href="#DejaVuSans-69" x="892.193359"/>
     <use xlink:href="#DejaVuSans-6e" x="919.976562"/>
     <use xlink:href="#DejaVuSans-67" x="983.355469"/>
     <use xlink:href="#DejaVuSans-20" x="1046.832031"/>
     <use xlink:href="#DejaVuSans-56" x="1078.619141"/>
     <use xlink:href="#DejaVuSans-65" x="1139.277344"/>
     <use xlink:href="#DejaVuSans-6e" x="1200.800781"/>
     <use xlink:href="#DejaVuSans-6e" x="1264.179688"/>
     <use xlink:href="#DejaVuSans-20" x="1327.558594"/>
     <use xlink:href="#DejaVuSans-44" x="1359.345703"/>
     <use xlink:href="#DejaVuSans-69" x="1436.347656"/>
     <use xlink:href="#DejaVuSans-61" x="1464.130859"/>
     <use xlink:href="#DejaVuSans-67" x="1525.410156"/>
     <use xlink:href="#DejaVuSans-72" x="1588.886719"/>
     <use xlink:href="#DejaVuSans-61" x="1630"/>
     <use xlink:href="#DejaVuSans-6d" x="1691.279297"/>
    </g>
   </g>
  </g>
 </g>
 <defs>
  <clipPath id="pbd1c68ef0e">
   <rect x="96.135955" y="41.472" width="280.04809" height="266.112"/>
  </clipPath>
 </defs>
</svg>
